M48
; DRILL file {KiCad (5.1.2)-2} date 19/03/2023 23:23:06
; FORMAT={-:-/ absolute / inch / decimal}
; #@! TF.CreationDate,2023-03-19T23:23:06+01:00
; #@! TF.GenerationSoftware,Kicad,Pcbnew,(5.1.2)-2
; #@! TF.FileFunction,Plated,1,2,PTH
FMAT,2
INCH
T1C0.0157
T2C0.0315
T3C0.0394
T4C0.0433
T5C0.0630
T6C0.1063
T7C0.1260
%
G90
G05
T1
X2.2935Y-3.4214
X2.3084Y-3.7063
X2.4361Y-4.1366
X2.4435Y-2.2859
X2.4768Y-3.3935
X2.5042Y-3.7137
X2.5417Y-2.3309
X2.5452Y-3.2197
X2.5565Y-3.9033
X2.5568Y-4.2294
X2.5935Y-2.9059
X2.598Y-3.2743
X2.6185Y-3.9559
X2.6293Y-3.8096
X2.6435Y-3.4559
X2.6596Y-2.772
X2.6641Y-4.2991
X2.6685Y-4.0059
X2.6741Y-4.2471
X2.6868Y-4.8057
X2.7262Y-3.39
X2.7935Y-4.2059
X2.8057Y-2.6866
X2.8822Y-3.0096
X2.9031Y-3.7559
X2.9097Y-2.5971
X2.9285Y-4.8559
X2.9298Y-3.8139
X2.9444Y-2.4059
X2.9465Y-3.9744
X2.9576Y-3.5518
X2.9596Y-3.1128
X3.0039Y-2.604
X3.0136Y-3.1612
X3.067Y-4.1582
X3.0685Y-2.6694
X3.0923Y-4.1071
X3.0976Y-4.3096
X3.1001Y-2.9559
X3.1446Y-4.0028
X3.1481Y-3.4443
X3.1526Y-4.1771
X3.1838Y-4.0559
X3.2348Y-3.9179
X3.2361Y-4.2605
X3.2445Y-4.1546
X3.2465Y-3.2801
X3.3435Y-1.8209
X3.3435Y-3.3809
X3.4035Y-4.9409
X3.4185Y-5.0163
X3.4689Y-5.1205
X3.4719Y-2.0087
X3.5173Y-3.4709
X3.5714Y-3.2365
X3.5732Y-4.6089
X3.5834Y-4.8059
X3.5834Y-4.9059
X3.5897Y-3.2822
X3.5897Y-4.1528
X3.6142Y-2.9559
X3.6435Y-3.2959
X3.6475Y-3.1099
X3.6593Y-3.1517
X3.7685Y-4.9525
X3.7946Y-2.2546
X3.8185Y-3.7559
X3.8435Y-4.6559
X3.8685Y-2.4059
X3.8685Y-4.1559
X3.8685Y-4.3559
X3.8685Y-4.7559
X3.8823Y-4.2349
X3.8935Y-4.9309
X3.9181Y-2.9559
X3.9605Y-4.1049
X3.9617Y-2.2738
X3.9685Y-4.4559
X4.0185Y-2.0059
X4.0325Y-1.9527
X4.0685Y-3.6559
X4.0835Y-3.2209
X4.091Y-2.2084
X4.0935Y-2.3559
X4.1185Y-2.8059
X4.1412Y-4.7082
X4.1435Y-4.1559
X4.1635Y-4.2709
X4.1685Y-2.0419
X4.1685Y-2.8059
X4.1685Y-4.3559
X4.1935Y-3.7559
X4.2385Y-2.0749
X4.2435Y-2.7059
X4.2435Y-2.9059
X4.2442Y-3.0039
X4.388Y-3.2883
X4.388Y-3.5109
X4.3922Y-2.5096
X4.4169Y-3.8309
X4.4435Y-3.7059
X4.4785Y-2.3409
X4.4835Y-2.9559
X4.5185Y-2.1059
X4.5185Y-3.3659
X4.5263Y-3.7021
X4.544Y-4.1059
X4.5685Y-4.3259
X4.5702Y-3.4309
X4.5963Y-4.1518
X4.6057Y-2.1494
X4.6434Y-3.1978
X4.6536Y-2.9559
X4.6559Y-3.1116
X4.6574Y-4.3258
X4.6619Y-2.4106
X4.6919Y-3.0076
X4.7185Y-3.4059
X4.7185Y-3.5559
X4.7202Y-4.2448
X4.7505Y-3.2027
X4.7685Y-4.5059
X4.779Y-4.9114
X4.7935Y-3.0559
X4.7986Y-2.4204
X4.7991Y-3.1771
X4.8124Y-3.4127
X4.8431Y-3.5113
X4.8435Y-3.2309
X4.8435Y-3.6109
X4.8513Y-5.5481
X4.8589Y-4.8809
X4.895Y-3.4044
X4.9037Y-3.4557
X4.9235Y-3.2309
X4.9535Y-2.4659
X4.9604Y-3.4309
X4.9669Y-3.1793
X5.0022Y-4.4375
X5.0043Y-4.0252
X5.0085Y-2.4609
X5.0939Y-3.2309
X5.0987Y-3.4557
X5.1121Y-4.2145
X5.1435Y-3.5059
X5.1435Y-5.4559
X5.1485Y-4.2509
X5.1618Y-3.3033
X5.1765Y-4.1817
X5.1775Y-3.0299
X5.1926Y-4.1018
X5.1993Y-3.7005
X5.2109Y-4.5559
X5.2185Y-3.8059
X5.2585Y-4.1409
X5.2791Y-3.4864
X5.2935Y-4.6559
X5.3935Y-3.3809
X5.3935Y-3.6559
X5.3979Y-3.909
X5.4335Y-3.1359
X5.4348Y-2.9698
X5.4366Y-2.454
X5.4535Y-3.3459
X5.4691Y-4.6896
X5.4765Y-3.0324
X5.4785Y-2.6459
X5.4785Y-2.8659
X5.5185Y-3.3249
X5.616Y-4.0559
X5.6185Y-3.7809
X5.6335Y-2.9359
X5.6435Y-2.8809
X5.6435Y-3.9559
X5.6585Y-2.6009
X5.6585Y-2.6609
X5.6735Y-3.2909
X5.6766Y-5.243
X5.6783Y-5.1799
X5.6911Y-4.2285
X5.6964Y-2.162
X5.6985Y-2.2109
X5.7085Y-2.7009
X5.7135Y-3.2409
X5.7305Y-4.1485
X5.731Y-2.8508
X5.7339Y-4.1975
X5.7955Y-2.1129
X5.8185Y-4.9059
X5.8435Y-3.5309
X5.8466Y-4.204
X5.8685Y-2.1978
X5.8698Y-4.1586
X5.8725Y-3.7165
X5.8911Y-4.4646
X5.909Y-3.8949
X5.9185Y-4.5059
X5.9185Y-4.5559
X5.9223Y-2.4524
X5.9248Y-4.0178
X5.9457Y-4.4452
X5.9582Y-4.8912
X5.9676Y-3.8138
X5.9685Y-3.4358
X5.9976Y-5.3024
X6.0185Y-5.0309
X6.0405Y-2.4139
X6.0587Y-3.7759
X6.0615Y-2.1059
X6.0685Y-3.8309
X6.0685Y-3.9059
X6.1012Y-4.6232
X6.1175Y-3.2899
X6.1325Y-4.3669
X6.1325Y-4.7067
X6.1435Y-4.9059
X6.1435Y-5.3809
X6.163Y-4.4359
X6.2185Y-4.1309
X6.2222Y-2.7522
X6.2235Y-3.4359
X6.2404Y-4.6762
X6.386Y-3.8884
X6.4Y-3.0194
X6.408Y-2.2592
X6.4289Y-3.0768
X6.4577Y-4.7822
X6.4585Y-5.3109
X6.4685Y-3.3209
X6.4685Y-4.0059
X6.4715Y-2.0559
X6.4874Y-4.8544
X6.5226Y-2.9717
X6.5456Y-3.0078
X6.549Y-5.3504
X6.5531Y-4.6474
X6.6035Y-2.7509
X6.6435Y-4.7809
X6.6535Y-3.3209
X6.6685Y-5.0559
X6.7015Y-2.5599
X6.7035Y-4.7909
X6.7035Y-5.0059
X6.7885Y-4.0709
X6.8351Y-5.4043
X6.8385Y-4.3309
X6.8485Y-4.1309
X6.8565Y-2.4069
X7.0085Y-5.3959
X7.0285Y-4.6409
X7.0291Y-4.3115
X7.1035Y-4.6809
X7.1435Y-4.2059
X7.1905Y-2.4109
X7.2694Y-4.9168
X7.293Y-4.8359
X7.3025Y-2.2979
X7.3198Y-4.9096
X7.3235Y-4.7609
X7.3292Y-2.4932
X7.3445Y-2.7662
X7.37Y-3.0811
X7.407Y-2.5123
X7.4302Y-2.341
X7.4785Y-2.5609
X7.4939Y-3.2245
X7.4963Y-2.7811
X7.5358Y-2.2745
X7.5526Y-2.4662
X7.5535Y-4.9614
X7.5835Y-2.0209
X7.6285Y-5.0109
X7.6525Y-1.9759
X7.6525Y-2.2999
X7.6985Y-2.0259
X7.6985Y-4.9086
X7.7229Y-2.4794
X7.7285Y-1.9709
X7.7685Y-2.0009
X7.77Y-2.4694
X7.9015Y-2.2579
X7.9025Y-2.0259
X7.9135Y-3.2109
X7.9333Y-2.5101
X7.9535Y-4.4041
X7.9585Y-3.2109
X7.9898Y-4.5096
X8.0085Y-3.2098
X8.0122Y-2.1411
X8.0385Y-3.6559
X8.0585Y-3.2109
X8.0647Y-2.3504
X8.0835Y-3.5559
X8.1535Y-2.0159
X8.1601Y-2.3714
X8.1601Y-2.6544
X8.1985Y-2.6559
T2
X7.4256Y-5.1559
X7.6185Y-5.1559
X4.3185Y-5.3775
X4.3185Y-5.4759
X4.8856Y-2.8309
X5.0785Y-2.8309
X3.5185Y-3.0575
X3.5185Y-3.1559
X3.7185Y-1.9559
X3.7185Y-2.0559
X3.7185Y-2.1559
X3.7185Y-2.2559
X3.7185Y-2.3559
X3.7185Y-2.4559
X3.7185Y-2.5559
X3.7185Y-2.6559
X3.7185Y-2.7559
X3.7185Y-2.8559
X3.7185Y-2.9559
X3.7185Y-3.0559
X4.3185Y-1.9559
X4.3185Y-2.0559
X4.3185Y-2.1559
X4.3185Y-2.2559
X4.3185Y-2.3559
X4.3185Y-2.4559
X4.3185Y-2.5559
X4.3185Y-2.6559
X4.3185Y-2.7559
X4.3185Y-2.8559
X4.3185Y-2.9559
X4.3185Y-3.0559
X4.3185Y-5.1459
X4.3185Y-5.2443
X7.2185Y-3.5559
X7.2185Y-3.6559
X7.2185Y-3.7559
X7.2185Y-3.8559
X7.2185Y-3.9559
X7.2185Y-4.0559
X7.2185Y-4.1559
X7.2185Y-4.2559
X7.2185Y-4.3559
X7.2185Y-4.4559
X7.2185Y-4.5559
X7.2185Y-4.6559
X7.2185Y-4.7559
X7.2185Y-4.8559
X7.2185Y-4.9559
X7.2185Y-5.0559
X7.2185Y-5.1559
X7.2185Y-5.2559
X7.2185Y-5.3559
X7.2185Y-5.4559
X7.8185Y-3.5559
X7.8185Y-3.6559
X7.8185Y-3.7559
X7.8185Y-3.8559
X7.8185Y-3.9559
X7.8185Y-4.0559
X7.8185Y-4.1559
X7.8185Y-4.2559
X7.8185Y-4.3559
X7.8185Y-4.4559
X7.8185Y-4.5559
X7.8185Y-4.6559
X7.8185Y-4.7559
X7.8185Y-4.8559
X7.8185Y-4.9559
X7.8185Y-5.0559
X7.8185Y-5.1559
X7.8185Y-5.2559
X7.8185Y-5.3559
X7.8185Y-5.4559
X6.3185Y-3.5559
X6.3185Y-3.6559
X6.3185Y-3.7559
X6.3185Y-3.8559
X6.3185Y-3.9559
X6.3185Y-4.0559
X6.3185Y-4.1559
X6.3185Y-4.2559
X6.3185Y-4.3559
X6.3185Y-4.4559
X6.3185Y-4.5559
X6.3185Y-4.6559
X6.3185Y-4.7559
X6.3185Y-4.8559
X6.3185Y-4.9559
X6.3185Y-5.0559
X6.3185Y-5.1559
X6.3185Y-5.2559
X6.3185Y-5.3559
X6.3185Y-5.4559
X6.9185Y-3.5559
X6.9185Y-3.6559
X6.9185Y-3.7559
X6.9185Y-3.8559
X6.9185Y-3.9559
X6.9185Y-4.0559
X6.9185Y-4.1559
X6.9185Y-4.2559
X6.9185Y-4.3559
X6.9185Y-4.4559
X6.9185Y-4.5559
X6.9185Y-4.6559
X6.9185Y-4.7559
X6.9185Y-4.8559
X6.9185Y-4.9559
X6.9185Y-5.0559
X6.9185Y-5.1559
X6.9185Y-5.2559
X6.9185Y-5.3559
X6.9185Y-5.4559
X2.7435Y-1.9559
X2.7435Y-2.0559
X2.7435Y-2.1559
X2.7435Y-2.2559
X2.7435Y-2.3559
X2.7435Y-2.4559
X2.7435Y-2.5559
X2.7435Y-2.6559
X2.7435Y-2.7559
X2.7435Y-2.8559
X2.7435Y-2.9559
X2.7435Y-3.0559
X2.7435Y-3.1559
X2.7435Y-3.2559
X3.3435Y-1.9559
X3.3435Y-2.0559
X3.3435Y-2.1559
X3.3435Y-2.2559
X3.3435Y-2.3559
X3.3435Y-2.4559
X3.3435Y-2.5559
X3.3435Y-2.6559
X3.3435Y-2.7559
X3.3435Y-2.8559
X3.3435Y-2.9559
X3.3435Y-3.0559
X3.3435Y-3.1559
X3.3435Y-3.2559
X2.7435Y-3.5559
X2.7435Y-3.6559
X2.7435Y-3.7559
X2.7435Y-3.8559
X2.7435Y-3.9559
X2.7435Y-4.0559
X2.7435Y-4.1559
X2.7435Y-4.2559
X2.7435Y-4.3559
X2.7435Y-4.4559
X2.7435Y-4.5559
X2.7435Y-4.6559
X2.7435Y-4.7559
X2.7435Y-4.8559
X3.3435Y-3.5559
X3.3435Y-3.6559
X3.3435Y-3.7559
X3.3435Y-3.8559
X3.3435Y-3.9559
X3.3435Y-4.0559
X3.3435Y-4.1559
X3.3435Y-4.2559
X3.3435Y-4.3559
X3.3435Y-4.4559
X3.3435Y-4.5559
X3.3435Y-4.6559
X3.3435Y-4.7559
X3.3435Y-4.8559
X8.1085Y-2.1459
X8.2069Y-2.1459
X6.1435Y-2.3309
X6.1435Y-2.6309
X6.2435Y-2.3309
X6.2435Y-2.6309
X6.3435Y-2.3309
X6.3435Y-2.6309
X6.4435Y-2.3309
X6.4435Y-2.6309
X6.5435Y-2.3309
X6.5435Y-2.6309
X6.6435Y-2.3309
X6.6435Y-2.6309
X6.7435Y-2.3309
X6.7435Y-2.6309
X6.8435Y-2.3309
X6.8435Y-2.6309
X6.9435Y-2.3309
X6.9435Y-2.6309
X7.0435Y-2.3309
X7.0435Y-2.6309
X4.9185Y-3.5559
X4.9185Y-3.6559
X4.9185Y-3.7559
X4.9185Y-3.8559
X4.9185Y-3.9559
X4.9185Y-4.0559
X4.9185Y-4.1559
X4.9185Y-4.2559
X4.9185Y-4.3559
X4.9185Y-4.4559
X4.9185Y-4.5559
X4.9185Y-4.6559
X4.9185Y-4.7559
X4.9185Y-4.8559
X4.9185Y-4.9559
X4.9185Y-5.0559
X4.9185Y-5.1559
X4.9185Y-5.2559
X4.9185Y-5.3559
X4.9185Y-5.4559
X5.5185Y-3.5559
X5.5185Y-3.6559
X5.5185Y-3.7559
X5.5185Y-3.8559
X5.5185Y-3.9559
X5.5185Y-4.0559
X5.5185Y-4.1559
X5.5185Y-4.2559
X5.5185Y-4.3559
X5.5185Y-4.4559
X5.5185Y-4.5559
X5.5185Y-4.6559
X5.5185Y-4.7559
X5.5185Y-4.8559
X5.5185Y-4.9559
X5.5185Y-5.0559
X5.5185Y-5.1559
X5.5185Y-5.2559
X5.5185Y-5.3559
X5.5185Y-5.4559
X3.7185Y-3.5559
X3.7185Y-3.6559
X3.7185Y-3.7559
X3.7185Y-3.8559
X3.7185Y-3.9559
X3.7185Y-4.0559
X3.7185Y-4.1559
X3.7185Y-4.2559
X3.7185Y-4.3559
X3.7185Y-4.4559
X3.7185Y-4.5559
X3.7185Y-4.6559
X3.7185Y-4.7559
X3.7185Y-4.8559
X4.3185Y-3.5559
X4.3185Y-3.6559
X4.3185Y-3.7559
X4.3185Y-3.8559
X4.3185Y-3.9559
X4.3185Y-4.0559
X4.3185Y-4.1559
X4.3185Y-4.2559
X4.3185Y-4.3559
X4.3185Y-4.4559
X4.3185Y-4.5559
X4.3185Y-4.6559
X4.3185Y-4.7559
X4.3185Y-4.8559
X4.7245Y-2.0799
X4.7245Y-2.1799
X4.8045Y-2.0799
X4.8495Y-1.9599
X4.8895Y-2.0799
X4.9745Y-2.0799
X4.9745Y-2.1799
X5.8685Y-2.8809
X5.8685Y-3.1809
X5.9685Y-2.8809
X5.9685Y-3.1809
X6.0685Y-2.8809
X6.0685Y-3.1809
X6.1685Y-2.8809
X6.1685Y-3.1809
X6.2685Y-2.8809
X6.2685Y-3.1809
X6.3685Y-2.8809
X6.3685Y-3.1809
X6.4685Y-2.8809
X6.4685Y-3.1809
X6.5685Y-2.8809
X6.5685Y-3.1809
X6.6685Y-2.8809
X6.6685Y-3.1809
X6.7685Y-2.8809
X6.7685Y-3.1809
X6.8685Y-2.8809
X6.8685Y-3.1809
X6.9685Y-2.8809
X6.9685Y-3.1809
X7.0685Y-2.8809
X7.0685Y-3.1809
X7.1685Y-2.8809
X7.1685Y-3.1809
T3
X6.5234Y-1.978
X6.5685Y-1.9
X6.5685Y-2.0559
X6.6136Y-1.978
X6.6587Y-1.9
X6.6587Y-2.0559
X6.7037Y-1.978
X6.7488Y-1.9
X6.7488Y-2.0559
X6.7939Y-1.978
X6.839Y-1.9
X6.839Y-2.0559
X6.8841Y-1.978
X6.9291Y-1.9
X6.9291Y-2.0559
X2.2435Y-2.9559
X2.2435Y-3.0559
X2.2435Y-3.1559
X2.2435Y-3.2559
X2.2435Y-3.3559
X2.2435Y-3.4559
X2.2435Y-3.5559
X2.2435Y-3.6559
X2.2435Y-3.7559
X2.2435Y-3.8559
X2.2435Y-3.9559
X2.2435Y-4.0559
X2.2435Y-4.1559
X2.2435Y-4.2559
X2.2435Y-4.3559
X2.2435Y-4.4559
X2.2435Y-4.5559
X2.2435Y-4.6559
X2.2435Y-4.7559
X2.2435Y-4.8559
X2.3435Y-2.9559
X2.3435Y-3.0559
X2.3435Y-3.1559
X2.3435Y-3.2559
X2.3435Y-3.3559
X2.3435Y-3.4559
X2.3435Y-3.5559
X2.3435Y-3.6559
X2.3435Y-3.7559
X2.3435Y-3.8559
X2.3435Y-3.9559
X2.3435Y-4.0559
X2.3435Y-4.1559
X2.3435Y-4.2559
X2.3435Y-4.3559
X2.3435Y-4.4559
X2.3435Y-4.5559
X2.3435Y-4.6559
X2.3435Y-4.7559
X2.3435Y-4.8559
X7.9185Y-2.7559
X7.9185Y-2.8559
X7.9185Y-2.9559
X8.0185Y-2.7559
X8.0185Y-2.8559
X8.0185Y-2.9559
X8.1685Y-4.3559
X8.1685Y-4.4559
X8.1685Y-4.5559
X8.1685Y-4.6559
X8.1685Y-4.7559
X8.1685Y-4.8559
X8.1685Y-4.9559
X8.1685Y-5.0559
X8.1685Y-5.1559
X8.1685Y-5.2559
X8.1685Y-3.2559
X8.1685Y-3.3559
X8.1685Y-3.4559
X8.1685Y-3.5559
X8.1685Y-3.6559
X8.1685Y-3.7559
X8.1685Y-3.8559
X8.1685Y-3.9559
X8.1685Y-4.0559
X8.1685Y-4.1559
X5.7355Y-1.9569
X5.8355Y-1.9569
X5.9355Y-1.9569
T4
X4.0135Y-5.2059
X4.0135Y-5.3059
X4.0135Y-5.4059
X2.9635Y-5.4809
X3.3635Y-5.4809
T5
X2.5935Y-5.1559
X2.5935Y-5.3921
X2.7785Y-5.274
T6
X2.1935Y-5.5809
X2.1935Y-1.9059
X8.2435Y-1.9059
X8.2435Y-5.5809
T7
X6.2463Y-1.9752
X7.2305Y-1.9752
T3
G00X4.5745Y-1.9996
M15
G01X4.5745Y-1.9602
M16
G05
G00X5.1245Y-1.9996
M15
G01X5.1245Y-1.9602
M16
G05
G00X5.4041Y-1.8779
M15
G01X5.4435Y-1.8779
M16
G05
G00X5.4828Y-1.9724
M15
G01X5.5222Y-1.9724
M16
G05
G00X5.4828Y-2.1889
M15
G01X5.5222Y-2.1889
M16
G05
T0
M30
