%FSLAX45Y45*%
G04 Gerber Fmt 4.5, Leading zero omitted, Abs format (unit mm)*
G04 Created by KiCad (PCBNEW (5.1.2)-2) date 2023-03-19 23:23:09*
%MOMM*%
%LPD*%
G04 APERTURE LIST*
%ADD10C,0.150000*%
%ADD11C,0.200000*%
%ADD12C,0.300000*%
G04 APERTURE END LIST*
D10*
X5253500Y-14492500D02*
X21238500Y-14492500D01*
X5254000Y-4507500D02*
X5254000Y-14492500D01*
X21238500Y-4507500D02*
X5253500Y-4507500D01*
X21238500Y-14492500D02*
X21238500Y-4507500D01*
D11*
X5805500Y-8670320D02*
X5845500Y-8710320D01*
X5845500Y-8670320D02*
X5805500Y-8710320D01*
X5843240Y-9393900D02*
X5883240Y-9433900D01*
X5883240Y-9393900D02*
X5843240Y-9433900D01*
X6167750Y-10486900D02*
X6207750Y-10526900D01*
X6207750Y-10486900D02*
X6167750Y-10526900D01*
X6186500Y-5786200D02*
X6226500Y-5826200D01*
X6226500Y-5786200D02*
X6186500Y-5826200D01*
X6271190Y-8599480D02*
X6311190Y-8639480D01*
X6311190Y-8599480D02*
X6271190Y-8639480D01*
X6340740Y-9412760D02*
X6380740Y-9452760D01*
X6380740Y-9412760D02*
X6340740Y-9452760D01*
X6435870Y-5900580D02*
X6475870Y-5940580D01*
X6475870Y-5900580D02*
X6435870Y-5940580D01*
X6444730Y-8158010D02*
X6484730Y-8198010D01*
X6484730Y-8158010D02*
X6444730Y-8198010D01*
X6473510Y-9894310D02*
X6513510Y-9934310D01*
X6513510Y-9894310D02*
X6473510Y-9934310D01*
X6474280Y-10722700D02*
X6514280Y-10762700D01*
X6514280Y-10722700D02*
X6474280Y-10762700D01*
X6567500Y-7361000D02*
X6607500Y-7401000D01*
X6607500Y-7361000D02*
X6567500Y-7401000D01*
X6578860Y-8296660D02*
X6618860Y-8336660D01*
X6618860Y-8296660D02*
X6578860Y-8336660D01*
X6631000Y-10028000D02*
X6671000Y-10068000D01*
X6671000Y-10028000D02*
X6631000Y-10068000D01*
X6658520Y-9656420D02*
X6698520Y-9696420D01*
X6698520Y-9656420D02*
X6658520Y-9696420D01*
X6694500Y-8758000D02*
X6734500Y-8798000D01*
X6734500Y-8758000D02*
X6694500Y-8798000D01*
X6735410Y-7020910D02*
X6775410Y-7060910D01*
X6775410Y-7020910D02*
X6735410Y-7060910D01*
X6746750Y-10899800D02*
X6786750Y-10939800D01*
X6786750Y-10899800D02*
X6746750Y-10939800D01*
X6758000Y-10155000D02*
X6798000Y-10195000D01*
X6798000Y-10155000D02*
X6758000Y-10195000D01*
X6772120Y-10767700D02*
X6812120Y-10807700D01*
X6812120Y-10767700D02*
X6772120Y-10807700D01*
X6804480Y-12186500D02*
X6844480Y-12226500D01*
X6844480Y-12186500D02*
X6804480Y-12226500D01*
X6904660Y-8590670D02*
X6944660Y-8630670D01*
X6944660Y-8590670D02*
X6904660Y-8630670D01*
X7075500Y-10663000D02*
X7115500Y-10703000D01*
X7115500Y-10663000D02*
X7075500Y-10703000D01*
X7106540Y-6803870D02*
X7146540Y-6843870D01*
X7146540Y-6803870D02*
X7106540Y-6843870D01*
X7300900Y-7624500D02*
X7340900Y-7664500D01*
X7340900Y-7624500D02*
X7300900Y-7664500D01*
X7353950Y-9520000D02*
X7393950Y-9560000D01*
X7393950Y-9520000D02*
X7353950Y-9560000D01*
X7370550Y-6576730D02*
X7410550Y-6616730D01*
X7410550Y-6576730D02*
X7370550Y-6616730D01*
X7418430Y-12314000D02*
X7458430Y-12354000D01*
X7458430Y-12314000D02*
X7418430Y-12354000D01*
X7421590Y-9667210D02*
X7461590Y-9707210D01*
X7461590Y-9667210D02*
X7421590Y-9707210D01*
X7458860Y-6091000D02*
X7498860Y-6131000D01*
X7498860Y-6091000D02*
X7458860Y-6131000D01*
X7464040Y-10074900D02*
X7504040Y-10114900D01*
X7504040Y-10074900D02*
X7464040Y-10114900D01*
X7492355Y-9001545D02*
X7532355Y-9041545D01*
X7532355Y-9001545D02*
X7492355Y-9041545D01*
X7497350Y-7886620D02*
X7537350Y-7926620D01*
X7537350Y-7886620D02*
X7497350Y-7926620D01*
X7610020Y-6594180D02*
X7650020Y-6634180D01*
X7650020Y-6594180D02*
X7610020Y-6634180D01*
X7634520Y-8009390D02*
X7674520Y-8049390D01*
X7674520Y-8009390D02*
X7634520Y-8049390D01*
X7770080Y-10541800D02*
X7810080Y-10581800D01*
X7810080Y-10541800D02*
X7770080Y-10581800D01*
X7774080Y-6760400D02*
X7814080Y-6800400D01*
X7814080Y-6760400D02*
X7774080Y-6800400D01*
X7834500Y-10412000D02*
X7874500Y-10452000D01*
X7874500Y-10412000D02*
X7834500Y-10452000D01*
X7847820Y-10926300D02*
X7887820Y-10966300D01*
X7887820Y-10926300D02*
X7847820Y-10966300D01*
X7854250Y-7488000D02*
X7894250Y-7528000D01*
X7894250Y-7488000D02*
X7854250Y-7528000D01*
X7967310Y-10147100D02*
X8007310Y-10187100D01*
X8007310Y-10147100D02*
X7967310Y-10187100D01*
X7976150Y-8728570D02*
X8016150Y-8768570D01*
X8016150Y-8728570D02*
X7976150Y-8768570D01*
X7987600Y-10589800D02*
X8027600Y-10629800D01*
X8027600Y-10589800D02*
X7987600Y-10629800D01*
X8066910Y-10282000D02*
X8106910Y-10322000D01*
X8106910Y-10282000D02*
X8066910Y-10322000D01*
X8196390Y-9931350D02*
X8236390Y-9971350D01*
X8236390Y-9931350D02*
X8196390Y-9971350D01*
X8199730Y-10801600D02*
X8239730Y-10841600D01*
X8239730Y-10801600D02*
X8199730Y-10841600D01*
X8221080Y-10532700D02*
X8261080Y-10572700D01*
X8261080Y-10532700D02*
X8221080Y-10572700D01*
X8226180Y-8311580D02*
X8266180Y-8351580D01*
X8266180Y-8311580D02*
X8226180Y-8351580D01*
X8472500Y-4605100D02*
X8512500Y-4645100D01*
X8512500Y-4605100D02*
X8472500Y-4645100D01*
X8472500Y-8567500D02*
X8512500Y-8607500D01*
X8512500Y-8567500D02*
X8472500Y-8607500D01*
X8624900Y-12529900D02*
X8664900Y-12569900D01*
X8664900Y-12529900D02*
X8624900Y-12569900D01*
X8663000Y-12721500D02*
X8703000Y-12761500D01*
X8703000Y-12721500D02*
X8663000Y-12761500D01*
X8791062Y-12986038D02*
X8831062Y-13026038D01*
X8831062Y-12986038D02*
X8791062Y-13026038D01*
X8798640Y-5082110D02*
X8838640Y-5122110D01*
X8838640Y-5082110D02*
X8798640Y-5122110D01*
X8913835Y-8796100D02*
X8953835Y-8836100D01*
X8953835Y-8796100D02*
X8913835Y-8836100D01*
X9051470Y-8200770D02*
X9091470Y-8240770D01*
X9091470Y-8200770D02*
X9051470Y-8240770D01*
X9055920Y-11686600D02*
X9095920Y-11726600D01*
X9095920Y-11686600D02*
X9055920Y-11726600D01*
X9081930Y-12187000D02*
X9121930Y-12227000D01*
X9121930Y-12187000D02*
X9081930Y-12227000D01*
X9081930Y-12441000D02*
X9121930Y-12481000D01*
X9121930Y-12441000D02*
X9081930Y-12481000D01*
X9097810Y-8316910D02*
X9137810Y-8356910D01*
X9137810Y-8316910D02*
X9097810Y-8356910D01*
X9097810Y-10528000D02*
X9137810Y-10568000D01*
X9137810Y-10528000D02*
X9097810Y-10568000D01*
X9160160Y-7488000D02*
X9200160Y-7528000D01*
X9200160Y-7488000D02*
X9160160Y-7528000D01*
X9234500Y-8351600D02*
X9274500Y-8391600D01*
X9274500Y-8351600D02*
X9234500Y-8391600D01*
X9244530Y-7879040D02*
X9284530Y-7919040D01*
X9284530Y-7879040D02*
X9244530Y-7919040D01*
X9274500Y-7985200D02*
X9314500Y-8025200D01*
X9314500Y-7985200D02*
X9274500Y-8025200D01*
X9552000Y-12559400D02*
X9592000Y-12599400D01*
X9592000Y-12559400D02*
X9552000Y-12599400D01*
X9618230Y-5706780D02*
X9658230Y-5746780D01*
X9658230Y-5706780D02*
X9618230Y-5746780D01*
X9679000Y-9520000D02*
X9719000Y-9560000D01*
X9719000Y-9520000D02*
X9679000Y-9560000D01*
X9742500Y-11806000D02*
X9782500Y-11846000D01*
X9782500Y-11806000D02*
X9742500Y-11846000D01*
X9806000Y-6091000D02*
X9846000Y-6131000D01*
X9846000Y-6091000D02*
X9806000Y-6131000D01*
X9806000Y-10536000D02*
X9846000Y-10576000D01*
X9846000Y-10536000D02*
X9806000Y-10576000D01*
X9806000Y-11044000D02*
X9846000Y-11084000D01*
X9846000Y-11044000D02*
X9806000Y-11084000D01*
X9806000Y-12060000D02*
X9846000Y-12100000D01*
X9846000Y-12060000D02*
X9806000Y-12100000D01*
X9841020Y-10736600D02*
X9881020Y-10776600D01*
X9881020Y-10736600D02*
X9841020Y-10776600D01*
X9869500Y-12504500D02*
X9909500Y-12544500D01*
X9909500Y-12504500D02*
X9869500Y-12544500D01*
X9931970Y-7488000D02*
X9971970Y-7528000D01*
X9971970Y-7488000D02*
X9931970Y-7528000D01*
X10039700Y-10406500D02*
X10079700Y-10446500D01*
X10079700Y-10406500D02*
X10039700Y-10446500D01*
X10042600Y-5755440D02*
X10082600Y-5795440D01*
X10082600Y-5755440D02*
X10042600Y-5795440D01*
X10060000Y-11298000D02*
X10100000Y-11338000D01*
X10100000Y-11298000D02*
X10060000Y-11338000D01*
X10187000Y-5075000D02*
X10227000Y-5115000D01*
X10227000Y-5075000D02*
X10187000Y-5115000D01*
X10222660Y-4939780D02*
X10262660Y-4979780D01*
X10262660Y-4939780D02*
X10222660Y-4979780D01*
X10314000Y-9266000D02*
X10354000Y-9306000D01*
X10354000Y-9266000D02*
X10314000Y-9306000D01*
X10352100Y-8161100D02*
X10392100Y-8201100D01*
X10392100Y-8161100D02*
X10352100Y-8201100D01*
X10371100Y-5589400D02*
X10411100Y-5629400D01*
X10411100Y-5589400D02*
X10371100Y-5629400D01*
X10377500Y-5964000D02*
X10417500Y-6004000D01*
X10417500Y-5964000D02*
X10377500Y-6004000D01*
X10441000Y-7107000D02*
X10481000Y-7147000D01*
X10481000Y-7107000D02*
X10441000Y-7147000D01*
X10498600Y-11938900D02*
X10538600Y-11978900D01*
X10538600Y-11938900D02*
X10498600Y-11978900D01*
X10504500Y-10536000D02*
X10544500Y-10576000D01*
X10544500Y-10536000D02*
X10504500Y-10576000D01*
X10555300Y-10828100D02*
X10595300Y-10868100D01*
X10595300Y-10828100D02*
X10555300Y-10868100D01*
X10568000Y-5166440D02*
X10608000Y-5206440D01*
X10608000Y-5166440D02*
X10568000Y-5206440D01*
X10568000Y-7107000D02*
X10608000Y-7147000D01*
X10608000Y-7107000D02*
X10568000Y-7147000D01*
X10568000Y-11044000D02*
X10608000Y-11084000D01*
X10608000Y-11044000D02*
X10568000Y-11084000D01*
X10631500Y-9520000D02*
X10671500Y-9560000D01*
X10671500Y-9520000D02*
X10631500Y-9560000D01*
X10745800Y-5250260D02*
X10785800Y-5290260D01*
X10785800Y-5250260D02*
X10745800Y-5290260D01*
X10758500Y-6853000D02*
X10798500Y-6893000D01*
X10798500Y-6853000D02*
X10758500Y-6893000D01*
X10758500Y-7361000D02*
X10798500Y-7401000D01*
X10798500Y-7361000D02*
X10758500Y-7401000D01*
X10760300Y-7610000D02*
X10800300Y-7650000D01*
X10800300Y-7610000D02*
X10760300Y-7650000D01*
X11125500Y-8332181D02*
X11165500Y-8372181D01*
X11165500Y-8332181D02*
X11125500Y-8372181D01*
X11125500Y-8897700D02*
X11165500Y-8937700D01*
X11165500Y-8897700D02*
X11125500Y-8937700D01*
X11136300Y-6354500D02*
X11176300Y-6394500D01*
X11176300Y-6354500D02*
X11136300Y-6394500D01*
X11198800Y-9710500D02*
X11238800Y-9750500D01*
X11238800Y-9710500D02*
X11198800Y-9750500D01*
X11266500Y-9393000D02*
X11306500Y-9433000D01*
X11306500Y-9393000D02*
X11266500Y-9433000D01*
X11355400Y-5925900D02*
X11395400Y-5965900D01*
X11395400Y-5925900D02*
X11355400Y-5965900D01*
X11368100Y-7488000D02*
X11408100Y-7528000D01*
X11408100Y-7488000D02*
X11368100Y-7528000D01*
X11457000Y-5329000D02*
X11497000Y-5369000D01*
X11497000Y-5329000D02*
X11457000Y-5369000D01*
X11457000Y-8529400D02*
X11497000Y-8569400D01*
X11497000Y-8529400D02*
X11457000Y-8569400D01*
X11476800Y-9383210D02*
X11516800Y-9423210D01*
X11516800Y-9383210D02*
X11476800Y-9423210D01*
X11521700Y-10409000D02*
X11561700Y-10449000D01*
X11561700Y-10409000D02*
X11521700Y-10449000D01*
X11584000Y-10967700D02*
X11624000Y-11007700D01*
X11624000Y-10967700D02*
X11584000Y-11007700D01*
X11588400Y-8694500D02*
X11628400Y-8734500D01*
X11628400Y-8694500D02*
X11588400Y-8734500D01*
X11654700Y-10525600D02*
X11694700Y-10565600D01*
X11694700Y-10525600D02*
X11654700Y-10565600D01*
X11678400Y-5439460D02*
X11718400Y-5479460D01*
X11718400Y-5439460D02*
X11678400Y-5479460D01*
X11774300Y-8102530D02*
X11814300Y-8142530D01*
X11814300Y-8102530D02*
X11774300Y-8142530D01*
X11800200Y-7488000D02*
X11840200Y-7528000D01*
X11840200Y-7488000D02*
X11800200Y-7528000D01*
X11805900Y-7883400D02*
X11845900Y-7923400D01*
X11845900Y-7883400D02*
X11805900Y-7923400D01*
X11809700Y-10967600D02*
X11849700Y-11007600D01*
X11849700Y-10967600D02*
X11809700Y-11007600D01*
X11821150Y-6102840D02*
X11861150Y-6142840D01*
X11861150Y-6102840D02*
X11821150Y-6142840D01*
X11897300Y-7619250D02*
X11937300Y-7659250D01*
X11937300Y-7619250D02*
X11897300Y-7659250D01*
X11965000Y-8631000D02*
X12005000Y-8671000D01*
X12005000Y-8631000D02*
X11965000Y-8671000D01*
X11965000Y-9012000D02*
X12005000Y-9052000D01*
X12005000Y-9012000D02*
X11965000Y-9052000D01*
X11969200Y-10761700D02*
X12009200Y-10801700D01*
X12009200Y-10761700D02*
X11969200Y-10801700D01*
X12046200Y-8114930D02*
X12086200Y-8154930D01*
X12086200Y-8114930D02*
X12046200Y-8154930D01*
X12092000Y-11425000D02*
X12132000Y-11465000D01*
X12132000Y-11425000D02*
X12092000Y-11465000D01*
X12118600Y-12455000D02*
X12158600Y-12495000D01*
X12158600Y-12455000D02*
X12118600Y-12495000D01*
X12155500Y-7742000D02*
X12195500Y-7782000D01*
X12195500Y-7742000D02*
X12155500Y-7782000D01*
X12168477Y-6127800D02*
X12208477Y-6167800D01*
X12208477Y-6127800D02*
X12168477Y-6167800D01*
X12169800Y-8049850D02*
X12209800Y-8089850D01*
X12209800Y-8049850D02*
X12169800Y-8089850D01*
X12203600Y-8648320D02*
X12243600Y-8688320D01*
X12243600Y-8648320D02*
X12203600Y-8688320D01*
X12281539Y-8898661D02*
X12321539Y-8938661D01*
X12321539Y-8898661D02*
X12281539Y-8938661D01*
X12282500Y-8186500D02*
X12322500Y-8226500D01*
X12322500Y-8186500D02*
X12282500Y-8226500D01*
X12282500Y-9151700D02*
X12322500Y-9191700D01*
X12322500Y-9151700D02*
X12282500Y-9191700D01*
X12302300Y-14072200D02*
X12342300Y-14112200D01*
X12342300Y-14072200D02*
X12302300Y-14112200D01*
X12321600Y-12377500D02*
X12361600Y-12417500D01*
X12361600Y-12377500D02*
X12321600Y-12417500D01*
X12413400Y-8627110D02*
X12453400Y-8667110D01*
X12453400Y-8627110D02*
X12413400Y-8667110D01*
X12435400Y-8757520D02*
X12475400Y-8797520D01*
X12475400Y-8757520D02*
X12435400Y-8797520D01*
X12485700Y-8186500D02*
X12525700Y-8226500D01*
X12525700Y-8186500D02*
X12485700Y-8226500D01*
X12561900Y-6243400D02*
X12601900Y-6283400D01*
X12601900Y-6243400D02*
X12561900Y-6283400D01*
X12579500Y-8694500D02*
X12619500Y-8734500D01*
X12619500Y-8694500D02*
X12579500Y-8734500D01*
X12596000Y-8055500D02*
X12636000Y-8095500D01*
X12636000Y-8055500D02*
X12596000Y-8095500D01*
X12685700Y-11251300D02*
X12725700Y-11291300D01*
X12725700Y-11251300D02*
X12685700Y-11291300D01*
X12691000Y-10204000D02*
X12731000Y-10244000D01*
X12731000Y-10204000D02*
X12691000Y-10244000D01*
X12701600Y-6230700D02*
X12741600Y-6270700D01*
X12741600Y-6230700D02*
X12701600Y-6270700D01*
X12918400Y-8186500D02*
X12958400Y-8226500D01*
X12958400Y-8186500D02*
X12918400Y-8226500D01*
X12930700Y-8757520D02*
X12970700Y-8797520D01*
X12970700Y-8757520D02*
X12930700Y-8797520D01*
X12964620Y-10684720D02*
X13004620Y-10724720D01*
X13004620Y-10684720D02*
X12964620Y-10724720D01*
X13044500Y-8885000D02*
X13084500Y-8925000D01*
X13084500Y-8885000D02*
X13044500Y-8925000D01*
X13044500Y-13838000D02*
X13084500Y-13878000D01*
X13084500Y-13838000D02*
X13044500Y-13878000D01*
X13057200Y-10777300D02*
X13097200Y-10817300D01*
X13097200Y-10777300D02*
X13057200Y-10817300D01*
X13091000Y-8370500D02*
X13131000Y-8410500D01*
X13131000Y-8370500D02*
X13091000Y-8410500D01*
X13128200Y-10601470D02*
X13168200Y-10641470D01*
X13168200Y-10601470D02*
X13128200Y-10641470D01*
X13130945Y-7676045D02*
X13170945Y-7716045D01*
X13170945Y-7676045D02*
X13130945Y-7716045D01*
X13169171Y-10398629D02*
X13209171Y-10438629D01*
X13209171Y-10398629D02*
X13169171Y-10438629D01*
X13186240Y-9379230D02*
X13226240Y-9419230D01*
X13226240Y-9379230D02*
X13186240Y-9419230D01*
X13215600Y-11552000D02*
X13255600Y-11592000D01*
X13255600Y-11552000D02*
X13215600Y-11592000D01*
X13235000Y-9647000D02*
X13275000Y-9687000D01*
X13275000Y-9647000D02*
X13235000Y-9687000D01*
X13336600Y-10497900D02*
X13376600Y-10537900D01*
X13376600Y-10497900D02*
X13336600Y-10537900D01*
X13388800Y-8835560D02*
X13428800Y-8875560D01*
X13428800Y-8835560D02*
X13388800Y-8875560D01*
X13425500Y-11806000D02*
X13465500Y-11846000D01*
X13465500Y-11806000D02*
X13425500Y-11846000D01*
X13679500Y-8567500D02*
X13719500Y-8607500D01*
X13719500Y-8567500D02*
X13679500Y-8607500D01*
X13679500Y-9266000D02*
X13719500Y-9306000D01*
X13719500Y-9266000D02*
X13679500Y-9306000D01*
X13690700Y-9908960D02*
X13730700Y-9948960D01*
X13730700Y-9908960D02*
X13690700Y-9948960D01*
X13781100Y-7945200D02*
X13821100Y-7985200D01*
X13821100Y-7945200D02*
X13781100Y-7985200D01*
X13784414Y-7523410D02*
X13824414Y-7563410D01*
X13824414Y-7523410D02*
X13784414Y-7563410D01*
X13788950Y-6213150D02*
X13828950Y-6253150D01*
X13828950Y-6213150D02*
X13788950Y-6253150D01*
X13831900Y-8478600D02*
X13871900Y-8518600D01*
X13871900Y-8478600D02*
X13831900Y-8518600D01*
X13871500Y-11891700D02*
X13911500Y-11931700D01*
X13911500Y-11891700D02*
X13871500Y-11931700D01*
X13890390Y-7682420D02*
X13930390Y-7722420D01*
X13930390Y-7682420D02*
X13890390Y-7722420D01*
X13895400Y-6700600D02*
X13935400Y-6740600D01*
X13935400Y-6700600D02*
X13895400Y-6740600D01*
X13895450Y-7259350D02*
X13935450Y-7299350D01*
X13935450Y-7259350D02*
X13895450Y-7299350D01*
X13997000Y-8425240D02*
X14037000Y-8465240D01*
X14037000Y-8425240D02*
X13997000Y-8465240D01*
X14244600Y-10282000D02*
X14284600Y-10322000D01*
X14284600Y-10282000D02*
X14244600Y-10322000D01*
X14251000Y-9583500D02*
X14291000Y-9623500D01*
X14291000Y-9583500D02*
X14251000Y-9623500D01*
X14289100Y-7437200D02*
X14329100Y-7477200D01*
X14329100Y-7437200D02*
X14289100Y-7477200D01*
X14314500Y-7297500D02*
X14354500Y-7337500D01*
X14354500Y-7297500D02*
X14314500Y-7337500D01*
X14314500Y-10028000D02*
X14354500Y-10068000D01*
X14354500Y-10028000D02*
X14314500Y-10068000D01*
X14352600Y-6586300D02*
X14392600Y-6626300D01*
X14392600Y-6586300D02*
X14352600Y-6626300D01*
X14352600Y-6738700D02*
X14392600Y-6778700D01*
X14392600Y-6738700D02*
X14352600Y-6778700D01*
X14390700Y-8338900D02*
X14430700Y-8378900D01*
X14430700Y-8338900D02*
X14390700Y-8378900D01*
X14398500Y-13297300D02*
X14438500Y-13337300D01*
X14438500Y-13297300D02*
X14398500Y-13337300D01*
X14402800Y-13137000D02*
X14442800Y-13177000D01*
X14442800Y-13137000D02*
X14402800Y-13177000D01*
X14435300Y-10720300D02*
X14475300Y-10760300D01*
X14475300Y-10720300D02*
X14435300Y-10760300D01*
X14448800Y-5471500D02*
X14488800Y-5511500D01*
X14488800Y-5471500D02*
X14448800Y-5511500D01*
X14454200Y-5595700D02*
X14494200Y-5635700D01*
X14494200Y-5595700D02*
X14454200Y-5635700D01*
X14479600Y-6840300D02*
X14519600Y-6880300D01*
X14519600Y-6840300D02*
X14479600Y-6880300D01*
X14492300Y-8211900D02*
X14532300Y-8251900D01*
X14532300Y-8211900D02*
X14492300Y-8251900D01*
X14535500Y-10517200D02*
X14575500Y-10557200D01*
X14575500Y-10517200D02*
X14535500Y-10557200D01*
X14536790Y-7221030D02*
X14576790Y-7261030D01*
X14576790Y-7221030D02*
X14536790Y-7261030D01*
X14544000Y-10641600D02*
X14584000Y-10681600D01*
X14584000Y-10641600D02*
X14544000Y-10681600D01*
X14700600Y-5346780D02*
X14740600Y-5386780D01*
X14740600Y-5346780D02*
X14700600Y-5386780D01*
X14759000Y-12441000D02*
X14799000Y-12481000D01*
X14799000Y-12441000D02*
X14759000Y-12481000D01*
X14822500Y-8948500D02*
X14862500Y-8988500D01*
X14862500Y-8948500D02*
X14822500Y-8988500D01*
X14830349Y-10658149D02*
X14870349Y-10698149D01*
X14870349Y-10658149D02*
X14830349Y-10698149D01*
X14886000Y-5562370D02*
X14926000Y-5602370D01*
X14926000Y-5562370D02*
X14886000Y-5602370D01*
X14889200Y-10542800D02*
X14929200Y-10582800D01*
X14929200Y-10542800D02*
X14889200Y-10582800D01*
X14896200Y-9420030D02*
X14936200Y-9460030D01*
X14936200Y-9420030D02*
X14896200Y-9460030D01*
X14943300Y-11320200D02*
X14983300Y-11360200D01*
X14983300Y-11320200D02*
X14943300Y-11360200D01*
X14988800Y-9873000D02*
X15028800Y-9913000D01*
X15028800Y-9873000D02*
X14988800Y-9913000D01*
X15013000Y-11425000D02*
X15053000Y-11465000D01*
X15053000Y-11425000D02*
X15013000Y-11465000D01*
X15013000Y-11552000D02*
X15053000Y-11592000D01*
X15053000Y-11552000D02*
X15013000Y-11592000D01*
X15022600Y-6209080D02*
X15062600Y-6249080D01*
X15062600Y-6209080D02*
X15022600Y-6249080D01*
X15029000Y-10185300D02*
X15069000Y-10225300D01*
X15069000Y-10185300D02*
X15029000Y-10225300D01*
X15082200Y-11270800D02*
X15122200Y-11310800D01*
X15122200Y-11270800D02*
X15082200Y-11310800D01*
X15113800Y-12403700D02*
X15153800Y-12443700D01*
X15153800Y-12403700D02*
X15113800Y-12443700D01*
X15137600Y-9667010D02*
X15177600Y-9707010D01*
X15177600Y-9667010D02*
X15137600Y-9707010D01*
X15140000Y-8706960D02*
X15180000Y-8746960D01*
X15180000Y-8706960D02*
X15140000Y-8746960D01*
X15213900Y-13448200D02*
X15253900Y-13488200D01*
X15253900Y-13448200D02*
X15213900Y-13488200D01*
X15267000Y-12758500D02*
X15307000Y-12798500D01*
X15307000Y-12758500D02*
X15267000Y-12798500D01*
X15322900Y-6111320D02*
X15362900Y-6151320D01*
X15362900Y-6111320D02*
X15322900Y-6151320D01*
X15369200Y-9570820D02*
X15409200Y-9610820D01*
X15409200Y-9570820D02*
X15369200Y-9610820D01*
X15376200Y-5329000D02*
X15416200Y-5369000D01*
X15416200Y-5329000D02*
X15376200Y-5369000D01*
X15394000Y-9710500D02*
X15434000Y-9750500D01*
X15434000Y-9710500D02*
X15394000Y-9750500D01*
X15394000Y-9901000D02*
X15434000Y-9941000D01*
X15434000Y-9901000D02*
X15394000Y-9941000D01*
X15477000Y-11723000D02*
X15517000Y-11763000D01*
X15517000Y-11723000D02*
X15477000Y-11763000D01*
X15518500Y-8336360D02*
X15558500Y-8376360D01*
X15558500Y-8336360D02*
X15518500Y-8376360D01*
X15556500Y-11072000D02*
X15596500Y-11112000D01*
X15596500Y-11072000D02*
X15556500Y-11112000D01*
X15556500Y-11934990D02*
X15596500Y-11974990D01*
X15596500Y-11934990D02*
X15556500Y-11974990D01*
X15584500Y-12441000D02*
X15624500Y-12481000D01*
X15624500Y-12441000D02*
X15584500Y-12481000D01*
X15584500Y-13647500D02*
X15624500Y-13687500D01*
X15624500Y-13647500D02*
X15584500Y-13687500D01*
X15634000Y-11247200D02*
X15674000Y-11287200D01*
X15674000Y-11247200D02*
X15634000Y-11287200D01*
X15775000Y-10472500D02*
X15815000Y-10512500D01*
X15815000Y-10472500D02*
X15775000Y-10512500D01*
X15784500Y-6970500D02*
X15824500Y-7010500D01*
X15824500Y-6970500D02*
X15784500Y-7010500D01*
X15787700Y-8707200D02*
X15827700Y-8747200D01*
X15827700Y-8707200D02*
X15787700Y-8747200D01*
X15830650Y-11857460D02*
X15870650Y-11897460D01*
X15870650Y-11857460D02*
X15830650Y-11897460D01*
X16200450Y-9856550D02*
X16240450Y-9896550D01*
X16240450Y-9856550D02*
X16200450Y-9896550D01*
X16236000Y-7649150D02*
X16276000Y-7689150D01*
X16276000Y-7649150D02*
X16236000Y-7689150D01*
X16256200Y-5718290D02*
X16296200Y-5758290D01*
X16296200Y-5718290D02*
X16256200Y-5758290D01*
X16309400Y-7795040D02*
X16349400Y-7835040D01*
X16349400Y-7795040D02*
X16309400Y-7835040D01*
X16382600Y-12126900D02*
X16422600Y-12166900D01*
X16422600Y-12126900D02*
X16382600Y-12166900D01*
X16384600Y-13469700D02*
X16424600Y-13509700D01*
X16424600Y-13469700D02*
X16384600Y-13509700D01*
X16410000Y-8415100D02*
X16450000Y-8455100D01*
X16450000Y-8415100D02*
X16410000Y-8455100D01*
X16410000Y-10155000D02*
X16450000Y-10195000D01*
X16450000Y-10155000D02*
X16410000Y-10195000D01*
X16417600Y-5202000D02*
X16457600Y-5242000D01*
X16457600Y-5202000D02*
X16417600Y-5242000D01*
X16457900Y-12310100D02*
X16497900Y-12350100D01*
X16497900Y-12310100D02*
X16457900Y-12350100D01*
X16547300Y-7528160D02*
X16587300Y-7568160D01*
X16587300Y-7528160D02*
X16547300Y-7568160D01*
X16605900Y-7619930D02*
X16645900Y-7659930D01*
X16645900Y-7619930D02*
X16605900Y-7659930D01*
X16614400Y-13570000D02*
X16654400Y-13610000D01*
X16654400Y-13570000D02*
X16614400Y-13610000D01*
X16625001Y-11784399D02*
X16665001Y-11824399D01*
X16665001Y-11784399D02*
X16625001Y-11824399D01*
X16752900Y-6967300D02*
X16792900Y-7007300D01*
X16792900Y-6967300D02*
X16752900Y-7007300D01*
X16854500Y-12123500D02*
X16894500Y-12163500D01*
X16894500Y-12123500D02*
X16854500Y-12163500D01*
X16879900Y-8415100D02*
X16919900Y-8455100D01*
X16919900Y-8415100D02*
X16879900Y-8455100D01*
X16918000Y-12822000D02*
X16958000Y-12862000D01*
X16958000Y-12822000D02*
X16918000Y-12862000D01*
X17001800Y-6482160D02*
X17041800Y-6522160D01*
X17041800Y-6482160D02*
X17001800Y-6522160D01*
X17006900Y-12148900D02*
X17046900Y-12188900D01*
X17046900Y-12148900D02*
X17006900Y-12188900D01*
X17006900Y-12695000D02*
X17046900Y-12735000D01*
X17046900Y-12695000D02*
X17006900Y-12735000D01*
X17222800Y-10320100D02*
X17262800Y-10360100D01*
X17262800Y-10320100D02*
X17222800Y-10360100D01*
X17341101Y-13706999D02*
X17381101Y-13746999D01*
X17381101Y-13706999D02*
X17341101Y-13746999D01*
X17349800Y-10980500D02*
X17389800Y-11020500D01*
X17389800Y-10980500D02*
X17349800Y-11020500D01*
X17375212Y-10472512D02*
X17415212Y-10512512D01*
X17415212Y-10472512D02*
X17375212Y-10512512D01*
X17395500Y-6093540D02*
X17435500Y-6133540D01*
X17435500Y-6093540D02*
X17395500Y-6133540D01*
X17781600Y-13685600D02*
X17821600Y-13725600D01*
X17821600Y-13685600D02*
X17781600Y-13725600D01*
X17832400Y-11767900D02*
X17872400Y-11807900D01*
X17872400Y-11767900D02*
X17832400Y-11807900D01*
X17833900Y-10931200D02*
X17873900Y-10971200D01*
X17873900Y-10931200D02*
X17833900Y-10971200D01*
X18022900Y-11869500D02*
X18062900Y-11909500D01*
X18062900Y-11869500D02*
X18022900Y-11909500D01*
X18124500Y-10663000D02*
X18164500Y-10703000D01*
X18164500Y-10663000D02*
X18124500Y-10703000D01*
X18243900Y-6103700D02*
X18283900Y-6143700D01*
X18283900Y-6103700D02*
X18243900Y-6143700D01*
X18444349Y-12468749D02*
X18484349Y-12508749D01*
X18484349Y-12468749D02*
X18444349Y-12508749D01*
X18504200Y-12263200D02*
X18544200Y-12303200D01*
X18544200Y-12263200D02*
X18504200Y-12303200D01*
X18528400Y-5816680D02*
X18568400Y-5856680D01*
X18568400Y-5816680D02*
X18528400Y-5856680D01*
X18572200Y-12450500D02*
X18612200Y-12490500D01*
X18612200Y-12450500D02*
X18572200Y-12490500D01*
X18581700Y-12072700D02*
X18621700Y-12112700D01*
X18621700Y-12072700D02*
X18581700Y-12112700D01*
X18596200Y-6312720D02*
X18636200Y-6352720D01*
X18636200Y-6312720D02*
X18596200Y-6352720D01*
X18635000Y-7006030D02*
X18675000Y-7046030D01*
X18675000Y-7006030D02*
X18635000Y-7046030D01*
X18699700Y-7806000D02*
X18739700Y-7846000D01*
X18739700Y-7806000D02*
X18699700Y-7846000D01*
X18793900Y-6361180D02*
X18833900Y-6401180D01*
X18833900Y-6361180D02*
X18793900Y-6401180D01*
X18852596Y-5926225D02*
X18892596Y-5966225D01*
X18892596Y-5926225D02*
X18852596Y-5966225D01*
X18975400Y-6484700D02*
X19015400Y-6524700D01*
X19015400Y-6484700D02*
X18975400Y-6524700D01*
X19014600Y-8170350D02*
X19054600Y-8210350D01*
X19054600Y-8170350D02*
X19014600Y-8210350D01*
X19020500Y-7044000D02*
X19060500Y-7084000D01*
X19060500Y-7044000D02*
X19020500Y-7084000D01*
X19121020Y-5757179D02*
X19161020Y-5797179D01*
X19161020Y-5757179D02*
X19121020Y-5797179D01*
X19163650Y-6244240D02*
X19203650Y-6284240D01*
X19203650Y-6244240D02*
X19163650Y-6284240D01*
X19165900Y-12582000D02*
X19205900Y-12622000D01*
X19205900Y-12582000D02*
X19165900Y-12622000D01*
X19242100Y-5113100D02*
X19282100Y-5153100D01*
X19282100Y-5113100D02*
X19242100Y-5153100D01*
X19356400Y-12707700D02*
X19396400Y-12747700D01*
X19396400Y-12707700D02*
X19356400Y-12747700D01*
X19417400Y-4998800D02*
X19457400Y-5038800D01*
X19457400Y-4998800D02*
X19417400Y-5038800D01*
X19417400Y-5821800D02*
X19457400Y-5861800D01*
X19457400Y-5821800D02*
X19417400Y-5861800D01*
X19534200Y-5125800D02*
X19574200Y-5165800D01*
X19574200Y-5125800D02*
X19534200Y-5165800D01*
X19534200Y-12447900D02*
X19574200Y-12487900D01*
X19574200Y-12447900D02*
X19534200Y-12487900D01*
X19596150Y-6277750D02*
X19636150Y-6317750D01*
X19636150Y-6277750D02*
X19596150Y-6317750D01*
X19610400Y-4986100D02*
X19650400Y-5026100D01*
X19650400Y-4986100D02*
X19610400Y-5026100D01*
X19712000Y-5062300D02*
X19752000Y-5102300D01*
X19752000Y-5062300D02*
X19712000Y-5102300D01*
X19715750Y-6252290D02*
X19755750Y-6292290D01*
X19755750Y-6252290D02*
X19715750Y-6292290D01*
X20049800Y-5715080D02*
X20089800Y-5755080D01*
X20089800Y-5715080D02*
X20049800Y-5755080D01*
X20052400Y-5125800D02*
X20092400Y-5165800D01*
X20092400Y-5125800D02*
X20052400Y-5165800D01*
X20080300Y-8135700D02*
X20120300Y-8175700D01*
X20120300Y-8135700D02*
X20080300Y-8175700D01*
X20130500Y-6355670D02*
X20170500Y-6395670D01*
X20170500Y-6355670D02*
X20130500Y-6395670D01*
X20181900Y-11166500D02*
X20221900Y-11206500D01*
X20221900Y-11166500D02*
X20181900Y-11206500D01*
X20194600Y-8135700D02*
X20234600Y-8175700D01*
X20234600Y-8135700D02*
X20194600Y-8175700D01*
X20274000Y-11434500D02*
X20314000Y-11474500D01*
X20314000Y-11434500D02*
X20274000Y-11474500D01*
X20321600Y-8132956D02*
X20361600Y-8172956D01*
X20361600Y-8132956D02*
X20321600Y-8172956D01*
X20330930Y-5418270D02*
X20370930Y-5458270D01*
X20370930Y-5418270D02*
X20330930Y-5458270D01*
X20397800Y-9266000D02*
X20437800Y-9306000D01*
X20437800Y-9266000D02*
X20397800Y-9306000D01*
X20448600Y-8135700D02*
X20488600Y-8175700D01*
X20488600Y-8135700D02*
X20448600Y-8175700D01*
X20464230Y-5949900D02*
X20504230Y-5989900D01*
X20504230Y-5949900D02*
X20464230Y-5989900D01*
X20512100Y-9012000D02*
X20552100Y-9052000D01*
X20552100Y-9012000D02*
X20512100Y-9052000D01*
X20689900Y-5100400D02*
X20729900Y-5140400D01*
X20729900Y-5100400D02*
X20689900Y-5140400D01*
X20706550Y-6003290D02*
X20746550Y-6043290D01*
X20746550Y-6003290D02*
X20706550Y-6043290D01*
X20706550Y-6722050D02*
X20746550Y-6762050D01*
X20746550Y-6722050D02*
X20706550Y-6762050D01*
X20804200Y-6726000D02*
X20844200Y-6766000D01*
X20844200Y-6726000D02*
X20804200Y-6766000D01*
X18901000Y-13096000D02*
G75*
G03X18901000Y-13096000I-40000J0D01*
G01*
X19391000Y-13096000D02*
G75*
G03X19391000Y-13096000I-40000J0D01*
G01*
X11009000Y-13658800D02*
G75*
G03X11009000Y-13658800I-40000J0D01*
G01*
X11009000Y-13908800D02*
G75*
G03X11009000Y-13908800I-40000J0D01*
G01*
X12449400Y-7190500D02*
G75*
G03X12449400Y-7190500I-40000J0D01*
G01*
X12939400Y-7190500D02*
G75*
G03X12939400Y-7190500I-40000J0D01*
G01*
X8977000Y-7766000D02*
G75*
G03X8977000Y-7766000I-40000J0D01*
G01*
X8977000Y-8016000D02*
G75*
G03X8977000Y-8016000I-40000J0D01*
G01*
X9485000Y-4968000D02*
G75*
G03X9485000Y-4968000I-40000J0D01*
G01*
X9485000Y-5222000D02*
G75*
G03X9485000Y-5222000I-40000J0D01*
G01*
X9485000Y-5476000D02*
G75*
G03X9485000Y-5476000I-40000J0D01*
G01*
X9485000Y-5730000D02*
G75*
G03X9485000Y-5730000I-40000J0D01*
G01*
X9485000Y-5984000D02*
G75*
G03X9485000Y-5984000I-40000J0D01*
G01*
X9485000Y-6238000D02*
G75*
G03X9485000Y-6238000I-40000J0D01*
G01*
X9485000Y-6492000D02*
G75*
G03X9485000Y-6492000I-40000J0D01*
G01*
X9485000Y-6746000D02*
G75*
G03X9485000Y-6746000I-40000J0D01*
G01*
X9485000Y-7000000D02*
G75*
G03X9485000Y-7000000I-40000J0D01*
G01*
X9485000Y-7254000D02*
G75*
G03X9485000Y-7254000I-40000J0D01*
G01*
X9485000Y-7508000D02*
G75*
G03X9485000Y-7508000I-40000J0D01*
G01*
X9485000Y-7762000D02*
G75*
G03X9485000Y-7762000I-40000J0D01*
G01*
X11009000Y-4968000D02*
G75*
G03X11009000Y-4968000I-40000J0D01*
G01*
X11009000Y-5222000D02*
G75*
G03X11009000Y-5222000I-40000J0D01*
G01*
X11009000Y-5476000D02*
G75*
G03X11009000Y-5476000I-40000J0D01*
G01*
X11009000Y-5730000D02*
G75*
G03X11009000Y-5730000I-40000J0D01*
G01*
X11009000Y-5984000D02*
G75*
G03X11009000Y-5984000I-40000J0D01*
G01*
X11009000Y-6238000D02*
G75*
G03X11009000Y-6238000I-40000J0D01*
G01*
X11009000Y-6492000D02*
G75*
G03X11009000Y-6492000I-40000J0D01*
G01*
X11009000Y-6746000D02*
G75*
G03X11009000Y-6746000I-40000J0D01*
G01*
X11009000Y-7000000D02*
G75*
G03X11009000Y-7000000I-40000J0D01*
G01*
X11009000Y-7254000D02*
G75*
G03X11009000Y-7254000I-40000J0D01*
G01*
X11009000Y-7508000D02*
G75*
G03X11009000Y-7508000I-40000J0D01*
G01*
X11009000Y-7762000D02*
G75*
G03X11009000Y-7762000I-40000J0D01*
G01*
X11009000Y-13070600D02*
G75*
G03X11009000Y-13070600I-40000J0D01*
G01*
X11009000Y-13320600D02*
G75*
G03X11009000Y-13320600I-40000J0D01*
G01*
X18375000Y-9032000D02*
G75*
G03X18375000Y-9032000I-40000J0D01*
G01*
X18375000Y-9286000D02*
G75*
G03X18375000Y-9286000I-40000J0D01*
G01*
X18375000Y-9540000D02*
G75*
G03X18375000Y-9540000I-40000J0D01*
G01*
X18375000Y-9794000D02*
G75*
G03X18375000Y-9794000I-40000J0D01*
G01*
X18375000Y-10048000D02*
G75*
G03X18375000Y-10048000I-40000J0D01*
G01*
X18375000Y-10302000D02*
G75*
G03X18375000Y-10302000I-40000J0D01*
G01*
X18375000Y-10556000D02*
G75*
G03X18375000Y-10556000I-40000J0D01*
G01*
X18375000Y-10810000D02*
G75*
G03X18375000Y-10810000I-40000J0D01*
G01*
X18375000Y-11064000D02*
G75*
G03X18375000Y-11064000I-40000J0D01*
G01*
X18375000Y-11318000D02*
G75*
G03X18375000Y-11318000I-40000J0D01*
G01*
X18375000Y-11572000D02*
G75*
G03X18375000Y-11572000I-40000J0D01*
G01*
X18375000Y-11826000D02*
G75*
G03X18375000Y-11826000I-40000J0D01*
G01*
X18375000Y-12080000D02*
G75*
G03X18375000Y-12080000I-40000J0D01*
G01*
X18375000Y-12334000D02*
G75*
G03X18375000Y-12334000I-40000J0D01*
G01*
X18375000Y-12588000D02*
G75*
G03X18375000Y-12588000I-40000J0D01*
G01*
X18375000Y-12842000D02*
G75*
G03X18375000Y-12842000I-40000J0D01*
G01*
X18375000Y-13096000D02*
G75*
G03X18375000Y-13096000I-40000J0D01*
G01*
X18375000Y-13350000D02*
G75*
G03X18375000Y-13350000I-40000J0D01*
G01*
X18375000Y-13604000D02*
G75*
G03X18375000Y-13604000I-40000J0D01*
G01*
X18375000Y-13858000D02*
G75*
G03X18375000Y-13858000I-40000J0D01*
G01*
X19899000Y-9032000D02*
G75*
G03X19899000Y-9032000I-40000J0D01*
G01*
X19899000Y-9286000D02*
G75*
G03X19899000Y-9286000I-40000J0D01*
G01*
X19899000Y-9540000D02*
G75*
G03X19899000Y-9540000I-40000J0D01*
G01*
X19899000Y-9794000D02*
G75*
G03X19899000Y-9794000I-40000J0D01*
G01*
X19899000Y-10048000D02*
G75*
G03X19899000Y-10048000I-40000J0D01*
G01*
X19899000Y-10302000D02*
G75*
G03X19899000Y-10302000I-40000J0D01*
G01*
X19899000Y-10556000D02*
G75*
G03X19899000Y-10556000I-40000J0D01*
G01*
X19899000Y-10810000D02*
G75*
G03X19899000Y-10810000I-40000J0D01*
G01*
X19899000Y-11064000D02*
G75*
G03X19899000Y-11064000I-40000J0D01*
G01*
X19899000Y-11318000D02*
G75*
G03X19899000Y-11318000I-40000J0D01*
G01*
X19899000Y-11572000D02*
G75*
G03X19899000Y-11572000I-40000J0D01*
G01*
X19899000Y-11826000D02*
G75*
G03X19899000Y-11826000I-40000J0D01*
G01*
X19899000Y-12080000D02*
G75*
G03X19899000Y-12080000I-40000J0D01*
G01*
X19899000Y-12334000D02*
G75*
G03X19899000Y-12334000I-40000J0D01*
G01*
X19899000Y-12588000D02*
G75*
G03X19899000Y-12588000I-40000J0D01*
G01*
X19899000Y-12842000D02*
G75*
G03X19899000Y-12842000I-40000J0D01*
G01*
X19899000Y-13096000D02*
G75*
G03X19899000Y-13096000I-40000J0D01*
G01*
X19899000Y-13350000D02*
G75*
G03X19899000Y-13350000I-40000J0D01*
G01*
X19899000Y-13604000D02*
G75*
G03X19899000Y-13604000I-40000J0D01*
G01*
X19899000Y-13858000D02*
G75*
G03X19899000Y-13858000I-40000J0D01*
G01*
X16089000Y-9032000D02*
G75*
G03X16089000Y-9032000I-40000J0D01*
G01*
X16089000Y-9286000D02*
G75*
G03X16089000Y-9286000I-40000J0D01*
G01*
X16089000Y-9540000D02*
G75*
G03X16089000Y-9540000I-40000J0D01*
G01*
X16089000Y-9794000D02*
G75*
G03X16089000Y-9794000I-40000J0D01*
G01*
X16089000Y-10048000D02*
G75*
G03X16089000Y-10048000I-40000J0D01*
G01*
X16089000Y-10302000D02*
G75*
G03X16089000Y-10302000I-40000J0D01*
G01*
X16089000Y-10556000D02*
G75*
G03X16089000Y-10556000I-40000J0D01*
G01*
X16089000Y-10810000D02*
G75*
G03X16089000Y-10810000I-40000J0D01*
G01*
X16089000Y-11064000D02*
G75*
G03X16089000Y-11064000I-40000J0D01*
G01*
X16089000Y-11318000D02*
G75*
G03X16089000Y-11318000I-40000J0D01*
G01*
X16089000Y-11572000D02*
G75*
G03X16089000Y-11572000I-40000J0D01*
G01*
X16089000Y-11826000D02*
G75*
G03X16089000Y-11826000I-40000J0D01*
G01*
X16089000Y-12080000D02*
G75*
G03X16089000Y-12080000I-40000J0D01*
G01*
X16089000Y-12334000D02*
G75*
G03X16089000Y-12334000I-40000J0D01*
G01*
X16089000Y-12588000D02*
G75*
G03X16089000Y-12588000I-40000J0D01*
G01*
X16089000Y-12842000D02*
G75*
G03X16089000Y-12842000I-40000J0D01*
G01*
X16089000Y-13096000D02*
G75*
G03X16089000Y-13096000I-40000J0D01*
G01*
X16089000Y-13350000D02*
G75*
G03X16089000Y-13350000I-40000J0D01*
G01*
X16089000Y-13604000D02*
G75*
G03X16089000Y-13604000I-40000J0D01*
G01*
X16089000Y-13858000D02*
G75*
G03X16089000Y-13858000I-40000J0D01*
G01*
X17613000Y-9032000D02*
G75*
G03X17613000Y-9032000I-40000J0D01*
G01*
X17613000Y-9286000D02*
G75*
G03X17613000Y-9286000I-40000J0D01*
G01*
X17613000Y-9540000D02*
G75*
G03X17613000Y-9540000I-40000J0D01*
G01*
X17613000Y-9794000D02*
G75*
G03X17613000Y-9794000I-40000J0D01*
G01*
X17613000Y-10048000D02*
G75*
G03X17613000Y-10048000I-40000J0D01*
G01*
X17613000Y-10302000D02*
G75*
G03X17613000Y-10302000I-40000J0D01*
G01*
X17613000Y-10556000D02*
G75*
G03X17613000Y-10556000I-40000J0D01*
G01*
X17613000Y-10810000D02*
G75*
G03X17613000Y-10810000I-40000J0D01*
G01*
X17613000Y-11064000D02*
G75*
G03X17613000Y-11064000I-40000J0D01*
G01*
X17613000Y-11318000D02*
G75*
G03X17613000Y-11318000I-40000J0D01*
G01*
X17613000Y-11572000D02*
G75*
G03X17613000Y-11572000I-40000J0D01*
G01*
X17613000Y-11826000D02*
G75*
G03X17613000Y-11826000I-40000J0D01*
G01*
X17613000Y-12080000D02*
G75*
G03X17613000Y-12080000I-40000J0D01*
G01*
X17613000Y-12334000D02*
G75*
G03X17613000Y-12334000I-40000J0D01*
G01*
X17613000Y-12588000D02*
G75*
G03X17613000Y-12588000I-40000J0D01*
G01*
X17613000Y-12842000D02*
G75*
G03X17613000Y-12842000I-40000J0D01*
G01*
X17613000Y-13096000D02*
G75*
G03X17613000Y-13096000I-40000J0D01*
G01*
X17613000Y-13350000D02*
G75*
G03X17613000Y-13350000I-40000J0D01*
G01*
X17613000Y-13604000D02*
G75*
G03X17613000Y-13604000I-40000J0D01*
G01*
X17613000Y-13858000D02*
G75*
G03X17613000Y-13858000I-40000J0D01*
G01*
X7008500Y-4968000D02*
G75*
G03X7008500Y-4968000I-40000J0D01*
G01*
X7008500Y-5222000D02*
G75*
G03X7008500Y-5222000I-40000J0D01*
G01*
X7008500Y-5476000D02*
G75*
G03X7008500Y-5476000I-40000J0D01*
G01*
X7008500Y-5730000D02*
G75*
G03X7008500Y-5730000I-40000J0D01*
G01*
X7008500Y-5984000D02*
G75*
G03X7008500Y-5984000I-40000J0D01*
G01*
X7008500Y-6238000D02*
G75*
G03X7008500Y-6238000I-40000J0D01*
G01*
X7008500Y-6492000D02*
G75*
G03X7008500Y-6492000I-40000J0D01*
G01*
X7008500Y-6746000D02*
G75*
G03X7008500Y-6746000I-40000J0D01*
G01*
X7008500Y-7000000D02*
G75*
G03X7008500Y-7000000I-40000J0D01*
G01*
X7008500Y-7254000D02*
G75*
G03X7008500Y-7254000I-40000J0D01*
G01*
X7008500Y-7508000D02*
G75*
G03X7008500Y-7508000I-40000J0D01*
G01*
X7008500Y-7762000D02*
G75*
G03X7008500Y-7762000I-40000J0D01*
G01*
X7008500Y-8016000D02*
G75*
G03X7008500Y-8016000I-40000J0D01*
G01*
X7008500Y-8270000D02*
G75*
G03X7008500Y-8270000I-40000J0D01*
G01*
X8532500Y-4968000D02*
G75*
G03X8532500Y-4968000I-40000J0D01*
G01*
X8532500Y-5222000D02*
G75*
G03X8532500Y-5222000I-40000J0D01*
G01*
X8532500Y-5476000D02*
G75*
G03X8532500Y-5476000I-40000J0D01*
G01*
X8532500Y-5730000D02*
G75*
G03X8532500Y-5730000I-40000J0D01*
G01*
X8532500Y-5984000D02*
G75*
G03X8532500Y-5984000I-40000J0D01*
G01*
X8532500Y-6238000D02*
G75*
G03X8532500Y-6238000I-40000J0D01*
G01*
X8532500Y-6492000D02*
G75*
G03X8532500Y-6492000I-40000J0D01*
G01*
X8532500Y-6746000D02*
G75*
G03X8532500Y-6746000I-40000J0D01*
G01*
X8532500Y-7000000D02*
G75*
G03X8532500Y-7000000I-40000J0D01*
G01*
X8532500Y-7254000D02*
G75*
G03X8532500Y-7254000I-40000J0D01*
G01*
X8532500Y-7508000D02*
G75*
G03X8532500Y-7508000I-40000J0D01*
G01*
X8532500Y-7762000D02*
G75*
G03X8532500Y-7762000I-40000J0D01*
G01*
X8532500Y-8016000D02*
G75*
G03X8532500Y-8016000I-40000J0D01*
G01*
X8532500Y-8270000D02*
G75*
G03X8532500Y-8270000I-40000J0D01*
G01*
X7008500Y-9032000D02*
G75*
G03X7008500Y-9032000I-40000J0D01*
G01*
X7008500Y-9286000D02*
G75*
G03X7008500Y-9286000I-40000J0D01*
G01*
X7008500Y-9540000D02*
G75*
G03X7008500Y-9540000I-40000J0D01*
G01*
X7008500Y-9794000D02*
G75*
G03X7008500Y-9794000I-40000J0D01*
G01*
X7008500Y-10048000D02*
G75*
G03X7008500Y-10048000I-40000J0D01*
G01*
X7008500Y-10302000D02*
G75*
G03X7008500Y-10302000I-40000J0D01*
G01*
X7008500Y-10556000D02*
G75*
G03X7008500Y-10556000I-40000J0D01*
G01*
X7008500Y-10810000D02*
G75*
G03X7008500Y-10810000I-40000J0D01*
G01*
X7008500Y-11064000D02*
G75*
G03X7008500Y-11064000I-40000J0D01*
G01*
X7008500Y-11318000D02*
G75*
G03X7008500Y-11318000I-40000J0D01*
G01*
X7008500Y-11572000D02*
G75*
G03X7008500Y-11572000I-40000J0D01*
G01*
X7008500Y-11826000D02*
G75*
G03X7008500Y-11826000I-40000J0D01*
G01*
X7008500Y-12080000D02*
G75*
G03X7008500Y-12080000I-40000J0D01*
G01*
X7008500Y-12334000D02*
G75*
G03X7008500Y-12334000I-40000J0D01*
G01*
X8532500Y-9032000D02*
G75*
G03X8532500Y-9032000I-40000J0D01*
G01*
X8532500Y-9286000D02*
G75*
G03X8532500Y-9286000I-40000J0D01*
G01*
X8532500Y-9540000D02*
G75*
G03X8532500Y-9540000I-40000J0D01*
G01*
X8532500Y-9794000D02*
G75*
G03X8532500Y-9794000I-40000J0D01*
G01*
X8532500Y-10048000D02*
G75*
G03X8532500Y-10048000I-40000J0D01*
G01*
X8532500Y-10302000D02*
G75*
G03X8532500Y-10302000I-40000J0D01*
G01*
X8532500Y-10556000D02*
G75*
G03X8532500Y-10556000I-40000J0D01*
G01*
X8532500Y-10810000D02*
G75*
G03X8532500Y-10810000I-40000J0D01*
G01*
X8532500Y-11064000D02*
G75*
G03X8532500Y-11064000I-40000J0D01*
G01*
X8532500Y-11318000D02*
G75*
G03X8532500Y-11318000I-40000J0D01*
G01*
X8532500Y-11572000D02*
G75*
G03X8532500Y-11572000I-40000J0D01*
G01*
X8532500Y-11826000D02*
G75*
G03X8532500Y-11826000I-40000J0D01*
G01*
X8532500Y-12080000D02*
G75*
G03X8532500Y-12080000I-40000J0D01*
G01*
X8532500Y-12334000D02*
G75*
G03X8532500Y-12334000I-40000J0D01*
G01*
X20635600Y-5450600D02*
G75*
G03X20635600Y-5450600I-40000J0D01*
G01*
X20885600Y-5450600D02*
G75*
G03X20885600Y-5450600I-40000J0D01*
G01*
X15644500Y-5920500D02*
G75*
G03X15644500Y-5920500I-40000J0D01*
G01*
X15644500Y-6682500D02*
G75*
G03X15644500Y-6682500I-40000J0D01*
G01*
X15898500Y-5920500D02*
G75*
G03X15898500Y-5920500I-40000J0D01*
G01*
X15898500Y-6682500D02*
G75*
G03X15898500Y-6682500I-40000J0D01*
G01*
X16152500Y-5920500D02*
G75*
G03X16152500Y-5920500I-40000J0D01*
G01*
X16152500Y-6682500D02*
G75*
G03X16152500Y-6682500I-40000J0D01*
G01*
X16406500Y-5920500D02*
G75*
G03X16406500Y-5920500I-40000J0D01*
G01*
X16406500Y-6682500D02*
G75*
G03X16406500Y-6682500I-40000J0D01*
G01*
X16660500Y-5920500D02*
G75*
G03X16660500Y-5920500I-40000J0D01*
G01*
X16660500Y-6682500D02*
G75*
G03X16660500Y-6682500I-40000J0D01*
G01*
X16914500Y-5920500D02*
G75*
G03X16914500Y-5920500I-40000J0D01*
G01*
X16914500Y-6682500D02*
G75*
G03X16914500Y-6682500I-40000J0D01*
G01*
X17168500Y-5920500D02*
G75*
G03X17168500Y-5920500I-40000J0D01*
G01*
X17168500Y-6682500D02*
G75*
G03X17168500Y-6682500I-40000J0D01*
G01*
X17422500Y-5920500D02*
G75*
G03X17422500Y-5920500I-40000J0D01*
G01*
X17422500Y-6682500D02*
G75*
G03X17422500Y-6682500I-40000J0D01*
G01*
X17676500Y-5920500D02*
G75*
G03X17676500Y-5920500I-40000J0D01*
G01*
X17676500Y-6682500D02*
G75*
G03X17676500Y-6682500I-40000J0D01*
G01*
X17930500Y-5920500D02*
G75*
G03X17930500Y-5920500I-40000J0D01*
G01*
X17930500Y-6682500D02*
G75*
G03X17930500Y-6682500I-40000J0D01*
G01*
X12533000Y-9032000D02*
G75*
G03X12533000Y-9032000I-40000J0D01*
G01*
X12533000Y-9286000D02*
G75*
G03X12533000Y-9286000I-40000J0D01*
G01*
X12533000Y-9540000D02*
G75*
G03X12533000Y-9540000I-40000J0D01*
G01*
X12533000Y-9794000D02*
G75*
G03X12533000Y-9794000I-40000J0D01*
G01*
X12533000Y-10048000D02*
G75*
G03X12533000Y-10048000I-40000J0D01*
G01*
X12533000Y-10302000D02*
G75*
G03X12533000Y-10302000I-40000J0D01*
G01*
X12533000Y-10556000D02*
G75*
G03X12533000Y-10556000I-40000J0D01*
G01*
X12533000Y-10810000D02*
G75*
G03X12533000Y-10810000I-40000J0D01*
G01*
X12533000Y-11064000D02*
G75*
G03X12533000Y-11064000I-40000J0D01*
G01*
X12533000Y-11318000D02*
G75*
G03X12533000Y-11318000I-40000J0D01*
G01*
X12533000Y-11572000D02*
G75*
G03X12533000Y-11572000I-40000J0D01*
G01*
X12533000Y-11826000D02*
G75*
G03X12533000Y-11826000I-40000J0D01*
G01*
X12533000Y-12080000D02*
G75*
G03X12533000Y-12080000I-40000J0D01*
G01*
X12533000Y-12334000D02*
G75*
G03X12533000Y-12334000I-40000J0D01*
G01*
X12533000Y-12588000D02*
G75*
G03X12533000Y-12588000I-40000J0D01*
G01*
X12533000Y-12842000D02*
G75*
G03X12533000Y-12842000I-40000J0D01*
G01*
X12533000Y-13096000D02*
G75*
G03X12533000Y-13096000I-40000J0D01*
G01*
X12533000Y-13350000D02*
G75*
G03X12533000Y-13350000I-40000J0D01*
G01*
X12533000Y-13604000D02*
G75*
G03X12533000Y-13604000I-40000J0D01*
G01*
X12533000Y-13858000D02*
G75*
G03X12533000Y-13858000I-40000J0D01*
G01*
X14057000Y-9032000D02*
G75*
G03X14057000Y-9032000I-40000J0D01*
G01*
X14057000Y-9286000D02*
G75*
G03X14057000Y-9286000I-40000J0D01*
G01*
X14057000Y-9540000D02*
G75*
G03X14057000Y-9540000I-40000J0D01*
G01*
X14057000Y-9794000D02*
G75*
G03X14057000Y-9794000I-40000J0D01*
G01*
X14057000Y-10048000D02*
G75*
G03X14057000Y-10048000I-40000J0D01*
G01*
X14057000Y-10302000D02*
G75*
G03X14057000Y-10302000I-40000J0D01*
G01*
X14057000Y-10556000D02*
G75*
G03X14057000Y-10556000I-40000J0D01*
G01*
X14057000Y-10810000D02*
G75*
G03X14057000Y-10810000I-40000J0D01*
G01*
X14057000Y-11064000D02*
G75*
G03X14057000Y-11064000I-40000J0D01*
G01*
X14057000Y-11318000D02*
G75*
G03X14057000Y-11318000I-40000J0D01*
G01*
X14057000Y-11572000D02*
G75*
G03X14057000Y-11572000I-40000J0D01*
G01*
X14057000Y-11826000D02*
G75*
G03X14057000Y-11826000I-40000J0D01*
G01*
X14057000Y-12080000D02*
G75*
G03X14057000Y-12080000I-40000J0D01*
G01*
X14057000Y-12334000D02*
G75*
G03X14057000Y-12334000I-40000J0D01*
G01*
X14057000Y-12588000D02*
G75*
G03X14057000Y-12588000I-40000J0D01*
G01*
X14057000Y-12842000D02*
G75*
G03X14057000Y-12842000I-40000J0D01*
G01*
X14057000Y-13096000D02*
G75*
G03X14057000Y-13096000I-40000J0D01*
G01*
X14057000Y-13350000D02*
G75*
G03X14057000Y-13350000I-40000J0D01*
G01*
X14057000Y-13604000D02*
G75*
G03X14057000Y-13604000I-40000J0D01*
G01*
X14057000Y-13858000D02*
G75*
G03X14057000Y-13858000I-40000J0D01*
G01*
X9485000Y-9032000D02*
G75*
G03X9485000Y-9032000I-40000J0D01*
G01*
X9485000Y-9286000D02*
G75*
G03X9485000Y-9286000I-40000J0D01*
G01*
X9485000Y-9540000D02*
G75*
G03X9485000Y-9540000I-40000J0D01*
G01*
X9485000Y-9794000D02*
G75*
G03X9485000Y-9794000I-40000J0D01*
G01*
X9485000Y-10048000D02*
G75*
G03X9485000Y-10048000I-40000J0D01*
G01*
X9485000Y-10302000D02*
G75*
G03X9485000Y-10302000I-40000J0D01*
G01*
X9485000Y-10556000D02*
G75*
G03X9485000Y-10556000I-40000J0D01*
G01*
X9485000Y-10810000D02*
G75*
G03X9485000Y-10810000I-40000J0D01*
G01*
X9485000Y-11064000D02*
G75*
G03X9485000Y-11064000I-40000J0D01*
G01*
X9485000Y-11318000D02*
G75*
G03X9485000Y-11318000I-40000J0D01*
G01*
X9485000Y-11572000D02*
G75*
G03X9485000Y-11572000I-40000J0D01*
G01*
X9485000Y-11826000D02*
G75*
G03X9485000Y-11826000I-40000J0D01*
G01*
X9485000Y-12080000D02*
G75*
G03X9485000Y-12080000I-40000J0D01*
G01*
X9485000Y-12334000D02*
G75*
G03X9485000Y-12334000I-40000J0D01*
G01*
X11009000Y-9032000D02*
G75*
G03X11009000Y-9032000I-40000J0D01*
G01*
X11009000Y-9286000D02*
G75*
G03X11009000Y-9286000I-40000J0D01*
G01*
X11009000Y-9540000D02*
G75*
G03X11009000Y-9540000I-40000J0D01*
G01*
X11009000Y-9794000D02*
G75*
G03X11009000Y-9794000I-40000J0D01*
G01*
X11009000Y-10048000D02*
G75*
G03X11009000Y-10048000I-40000J0D01*
G01*
X11009000Y-10302000D02*
G75*
G03X11009000Y-10302000I-40000J0D01*
G01*
X11009000Y-10556000D02*
G75*
G03X11009000Y-10556000I-40000J0D01*
G01*
X11009000Y-10810000D02*
G75*
G03X11009000Y-10810000I-40000J0D01*
G01*
X11009000Y-11064000D02*
G75*
G03X11009000Y-11064000I-40000J0D01*
G01*
X11009000Y-11318000D02*
G75*
G03X11009000Y-11318000I-40000J0D01*
G01*
X11009000Y-11572000D02*
G75*
G03X11009000Y-11572000I-40000J0D01*
G01*
X11009000Y-11826000D02*
G75*
G03X11009000Y-11826000I-40000J0D01*
G01*
X11009000Y-12080000D02*
G75*
G03X11009000Y-12080000I-40000J0D01*
G01*
X11009000Y-12334000D02*
G75*
G03X11009000Y-12334000I-40000J0D01*
G01*
X12040200Y-5282960D02*
G75*
G03X12040200Y-5282960I-40000J0D01*
G01*
X12040200Y-5536960D02*
G75*
G03X12040200Y-5536960I-40000J0D01*
G01*
X12243400Y-5282960D02*
G75*
G03X12243400Y-5282960I-40000J0D01*
G01*
X12357700Y-4978160D02*
G75*
G03X12357700Y-4978160I-40000J0D01*
G01*
X12459300Y-5282960D02*
G75*
G03X12459300Y-5282960I-40000J0D01*
G01*
X12675200Y-5282960D02*
G75*
G03X12675200Y-5282960I-40000J0D01*
G01*
X12675200Y-5536960D02*
G75*
G03X12675200Y-5536960I-40000J0D01*
G01*
X14946000Y-7317500D02*
G75*
G03X14946000Y-7317500I-40000J0D01*
G01*
X14946000Y-8079500D02*
G75*
G03X14946000Y-8079500I-40000J0D01*
G01*
X15200000Y-7317500D02*
G75*
G03X15200000Y-7317500I-40000J0D01*
G01*
X15200000Y-8079500D02*
G75*
G03X15200000Y-8079500I-40000J0D01*
G01*
X15454000Y-7317500D02*
G75*
G03X15454000Y-7317500I-40000J0D01*
G01*
X15454000Y-8079500D02*
G75*
G03X15454000Y-8079500I-40000J0D01*
G01*
X15708000Y-7317500D02*
G75*
G03X15708000Y-7317500I-40000J0D01*
G01*
X15708000Y-8079500D02*
G75*
G03X15708000Y-8079500I-40000J0D01*
G01*
X15962000Y-7317500D02*
G75*
G03X15962000Y-7317500I-40000J0D01*
G01*
X15962000Y-8079500D02*
G75*
G03X15962000Y-8079500I-40000J0D01*
G01*
X16216000Y-7317500D02*
G75*
G03X16216000Y-7317500I-40000J0D01*
G01*
X16216000Y-8079500D02*
G75*
G03X16216000Y-8079500I-40000J0D01*
G01*
X16470000Y-7317500D02*
G75*
G03X16470000Y-7317500I-40000J0D01*
G01*
X16470000Y-8079500D02*
G75*
G03X16470000Y-8079500I-40000J0D01*
G01*
X16724000Y-7317500D02*
G75*
G03X16724000Y-7317500I-40000J0D01*
G01*
X16724000Y-8079500D02*
G75*
G03X16724000Y-8079500I-40000J0D01*
G01*
X16978000Y-7317500D02*
G75*
G03X16978000Y-7317500I-40000J0D01*
G01*
X16978000Y-8079500D02*
G75*
G03X16978000Y-8079500I-40000J0D01*
G01*
X17232000Y-7317500D02*
G75*
G03X17232000Y-7317500I-40000J0D01*
G01*
X17232000Y-8079500D02*
G75*
G03X17232000Y-8079500I-40000J0D01*
G01*
X17486000Y-7317500D02*
G75*
G03X17486000Y-7317500I-40000J0D01*
G01*
X17486000Y-8079500D02*
G75*
G03X17486000Y-8079500I-40000J0D01*
G01*
X17740000Y-7317500D02*
G75*
G03X17740000Y-7317500I-40000J0D01*
G01*
X17740000Y-8079500D02*
G75*
G03X17740000Y-8079500I-40000J0D01*
G01*
X17994000Y-7317500D02*
G75*
G03X17994000Y-7317500I-40000J0D01*
G01*
X17994000Y-8079500D02*
G75*
G03X17994000Y-8079500I-40000J0D01*
G01*
X18248000Y-7317500D02*
G75*
G03X18248000Y-7317500I-40000J0D01*
G01*
X18248000Y-8079500D02*
G75*
G03X18248000Y-8079500I-40000J0D01*
G01*
X11619200Y-4978960D02*
X11619200Y-5078960D01*
X11569200Y-5028960D02*
X11669200Y-5028960D01*
X11659200Y-5078960D02*
X11659200Y-4978960D01*
X11579200Y-5078960D02*
X11579200Y-4978960D01*
X11659200Y-4978960D02*
G75*
G03X11579200Y-4978960I-40000J0D01*
G01*
X11579200Y-5078960D02*
G75*
G03X11659200Y-5078960I40000J0D01*
G01*
X13016200Y-4978960D02*
X13016200Y-5078960D01*
X12966200Y-5028960D02*
X13066200Y-5028960D01*
X13056200Y-5078960D02*
X13056200Y-4978960D01*
X12976200Y-5078960D02*
X12976200Y-4978960D01*
X13056200Y-4978960D02*
G75*
G03X12976200Y-4978960I-40000J0D01*
G01*
X12976200Y-5078960D02*
G75*
G03X13056200Y-5078960I40000J0D01*
G01*
X13776400Y-4719820D02*
X13776400Y-4819820D01*
X13726400Y-4769820D02*
X13826400Y-4769820D01*
X13726400Y-4809820D02*
X13826400Y-4809820D01*
X13726400Y-4729820D02*
X13826400Y-4729820D01*
X13826400Y-4809820D02*
G75*
G03X13826400Y-4729820I0J40000D01*
G01*
X13726400Y-4729820D02*
G75*
G03X13726400Y-4809820I0J-40000D01*
G01*
X13976400Y-4959820D02*
X13976400Y-5059820D01*
X13926400Y-5009820D02*
X14026400Y-5009820D01*
X13926400Y-5049820D02*
X14026400Y-5049820D01*
X13926400Y-4969820D02*
X14026400Y-4969820D01*
X14026400Y-5049820D02*
G75*
G03X14026400Y-4969820I0J40000D01*
G01*
X13926400Y-4969820D02*
G75*
G03X13926400Y-5049820I0J-40000D01*
G01*
X13976400Y-5509820D02*
X13976400Y-5609820D01*
X13926400Y-5559820D02*
X14026400Y-5559820D01*
X13926400Y-5599820D02*
X14026400Y-5599820D01*
X13926400Y-5519820D02*
X14026400Y-5519820D01*
X14026400Y-5599820D02*
G75*
G03X14026400Y-5519820I0J40000D01*
G01*
X13926400Y-5519820D02*
G75*
G03X13926400Y-5599820I0J-40000D01*
G01*
X16569500Y-4974000D02*
X16569500Y-5074000D01*
X16519500Y-5024000D02*
X16619500Y-5024000D01*
X16684000Y-4776000D02*
X16684000Y-4876000D01*
X16634000Y-4826000D02*
X16734000Y-4826000D01*
X16684000Y-5172000D02*
X16684000Y-5272000D01*
X16634000Y-5222000D02*
X16734000Y-5222000D01*
X16798500Y-4974000D02*
X16798500Y-5074000D01*
X16748500Y-5024000D02*
X16848500Y-5024000D01*
X16913000Y-4776000D02*
X16913000Y-4876000D01*
X16863000Y-4826000D02*
X16963000Y-4826000D01*
X16913000Y-5172000D02*
X16913000Y-5272000D01*
X16863000Y-5222000D02*
X16963000Y-5222000D01*
X17027500Y-4974000D02*
X17027500Y-5074000D01*
X16977500Y-5024000D02*
X17077500Y-5024000D01*
X17142000Y-4776000D02*
X17142000Y-4876000D01*
X17092000Y-4826000D02*
X17192000Y-4826000D01*
X17142000Y-5172000D02*
X17142000Y-5272000D01*
X17092000Y-5222000D02*
X17192000Y-5222000D01*
X17256500Y-4974000D02*
X17256500Y-5074000D01*
X17206500Y-5024000D02*
X17306500Y-5024000D01*
X17371000Y-4776000D02*
X17371000Y-4876000D01*
X17321000Y-4826000D02*
X17421000Y-4826000D01*
X17371000Y-5172000D02*
X17371000Y-5272000D01*
X17321000Y-5222000D02*
X17421000Y-5222000D01*
X17485500Y-4974000D02*
X17485500Y-5074000D01*
X17435500Y-5024000D02*
X17535500Y-5024000D01*
X17600000Y-4776000D02*
X17600000Y-4876000D01*
X17550000Y-4826000D02*
X17650000Y-4826000D01*
X17600000Y-5172000D02*
X17600000Y-5272000D01*
X17550000Y-5222000D02*
X17650000Y-5222000D01*
X5698500Y-7458000D02*
X5698500Y-7558000D01*
X5648500Y-7508000D02*
X5748500Y-7508000D01*
X5698500Y-7712000D02*
X5698500Y-7812000D01*
X5648500Y-7762000D02*
X5748500Y-7762000D01*
X5698500Y-7966000D02*
X5698500Y-8066000D01*
X5648500Y-8016000D02*
X5748500Y-8016000D01*
X5698500Y-8220000D02*
X5698500Y-8320000D01*
X5648500Y-8270000D02*
X5748500Y-8270000D01*
X5698500Y-8474000D02*
X5698500Y-8574000D01*
X5648500Y-8524000D02*
X5748500Y-8524000D01*
X5698500Y-8728000D02*
X5698500Y-8828000D01*
X5648500Y-8778000D02*
X5748500Y-8778000D01*
X5698500Y-8982000D02*
X5698500Y-9082000D01*
X5648500Y-9032000D02*
X5748500Y-9032000D01*
X5698500Y-9236000D02*
X5698500Y-9336000D01*
X5648500Y-9286000D02*
X5748500Y-9286000D01*
X5698500Y-9490000D02*
X5698500Y-9590000D01*
X5648500Y-9540000D02*
X5748500Y-9540000D01*
X5698500Y-9744000D02*
X5698500Y-9844000D01*
X5648500Y-9794000D02*
X5748500Y-9794000D01*
X5698500Y-9998000D02*
X5698500Y-10098000D01*
X5648500Y-10048000D02*
X5748500Y-10048000D01*
X5698500Y-10252000D02*
X5698500Y-10352000D01*
X5648500Y-10302000D02*
X5748500Y-10302000D01*
X5698500Y-10506000D02*
X5698500Y-10606000D01*
X5648500Y-10556000D02*
X5748500Y-10556000D01*
X5698500Y-10760000D02*
X5698500Y-10860000D01*
X5648500Y-10810000D02*
X5748500Y-10810000D01*
X5698500Y-11014000D02*
X5698500Y-11114000D01*
X5648500Y-11064000D02*
X5748500Y-11064000D01*
X5698500Y-11268000D02*
X5698500Y-11368000D01*
X5648500Y-11318000D02*
X5748500Y-11318000D01*
X5698500Y-11522000D02*
X5698500Y-11622000D01*
X5648500Y-11572000D02*
X5748500Y-11572000D01*
X5698500Y-11776000D02*
X5698500Y-11876000D01*
X5648500Y-11826000D02*
X5748500Y-11826000D01*
X5698500Y-12030000D02*
X5698500Y-12130000D01*
X5648500Y-12080000D02*
X5748500Y-12080000D01*
X5698500Y-12284000D02*
X5698500Y-12384000D01*
X5648500Y-12334000D02*
X5748500Y-12334000D01*
X5952500Y-7458000D02*
X5952500Y-7558000D01*
X5902500Y-7508000D02*
X6002500Y-7508000D01*
X5952500Y-7712000D02*
X5952500Y-7812000D01*
X5902500Y-7762000D02*
X6002500Y-7762000D01*
X5952500Y-7966000D02*
X5952500Y-8066000D01*
X5902500Y-8016000D02*
X6002500Y-8016000D01*
X5952500Y-8220000D02*
X5952500Y-8320000D01*
X5902500Y-8270000D02*
X6002500Y-8270000D01*
X5952500Y-8474000D02*
X5952500Y-8574000D01*
X5902500Y-8524000D02*
X6002500Y-8524000D01*
X5952500Y-8728000D02*
X5952500Y-8828000D01*
X5902500Y-8778000D02*
X6002500Y-8778000D01*
X5952500Y-8982000D02*
X5952500Y-9082000D01*
X5902500Y-9032000D02*
X6002500Y-9032000D01*
X5952500Y-9236000D02*
X5952500Y-9336000D01*
X5902500Y-9286000D02*
X6002500Y-9286000D01*
X5952500Y-9490000D02*
X5952500Y-9590000D01*
X5902500Y-9540000D02*
X6002500Y-9540000D01*
X5952500Y-9744000D02*
X5952500Y-9844000D01*
X5902500Y-9794000D02*
X6002500Y-9794000D01*
X5952500Y-9998000D02*
X5952500Y-10098000D01*
X5902500Y-10048000D02*
X6002500Y-10048000D01*
X5952500Y-10252000D02*
X5952500Y-10352000D01*
X5902500Y-10302000D02*
X6002500Y-10302000D01*
X5952500Y-10506000D02*
X5952500Y-10606000D01*
X5902500Y-10556000D02*
X6002500Y-10556000D01*
X5952500Y-10760000D02*
X5952500Y-10860000D01*
X5902500Y-10810000D02*
X6002500Y-10810000D01*
X5952500Y-11014000D02*
X5952500Y-11114000D01*
X5902500Y-11064000D02*
X6002500Y-11064000D01*
X5952500Y-11268000D02*
X5952500Y-11368000D01*
X5902500Y-11318000D02*
X6002500Y-11318000D01*
X5952500Y-11522000D02*
X5952500Y-11622000D01*
X5902500Y-11572000D02*
X6002500Y-11572000D01*
X5952500Y-11776000D02*
X5952500Y-11876000D01*
X5902500Y-11826000D02*
X6002500Y-11826000D01*
X5952500Y-12030000D02*
X5952500Y-12130000D01*
X5902500Y-12080000D02*
X6002500Y-12080000D01*
X5952500Y-12284000D02*
X5952500Y-12384000D01*
X5902500Y-12334000D02*
X6002500Y-12334000D01*
X20113000Y-6950000D02*
X20113000Y-7050000D01*
X20063000Y-7000000D02*
X20163000Y-7000000D01*
X20113000Y-7204000D02*
X20113000Y-7304000D01*
X20063000Y-7254000D02*
X20163000Y-7254000D01*
X20113000Y-7458000D02*
X20113000Y-7558000D01*
X20063000Y-7508000D02*
X20163000Y-7508000D01*
X20367000Y-6950000D02*
X20367000Y-7050000D01*
X20317000Y-7000000D02*
X20417000Y-7000000D01*
X20367000Y-7204000D02*
X20367000Y-7304000D01*
X20317000Y-7254000D02*
X20417000Y-7254000D01*
X20367000Y-7458000D02*
X20367000Y-7558000D01*
X20317000Y-7508000D02*
X20417000Y-7508000D01*
X20748000Y-11014000D02*
X20748000Y-11114000D01*
X20698000Y-11064000D02*
X20798000Y-11064000D01*
X20748000Y-11268000D02*
X20748000Y-11368000D01*
X20698000Y-11318000D02*
X20798000Y-11318000D01*
X20748000Y-11522000D02*
X20748000Y-11622000D01*
X20698000Y-11572000D02*
X20798000Y-11572000D01*
X20748000Y-11776000D02*
X20748000Y-11876000D01*
X20698000Y-11826000D02*
X20798000Y-11826000D01*
X20748000Y-12030000D02*
X20748000Y-12130000D01*
X20698000Y-12080000D02*
X20798000Y-12080000D01*
X20748000Y-12284000D02*
X20748000Y-12384000D01*
X20698000Y-12334000D02*
X20798000Y-12334000D01*
X20748000Y-12538000D02*
X20748000Y-12638000D01*
X20698000Y-12588000D02*
X20798000Y-12588000D01*
X20748000Y-12792000D02*
X20748000Y-12892000D01*
X20698000Y-12842000D02*
X20798000Y-12842000D01*
X20748000Y-13046000D02*
X20748000Y-13146000D01*
X20698000Y-13096000D02*
X20798000Y-13096000D01*
X20748000Y-13300000D02*
X20748000Y-13400000D01*
X20698000Y-13350000D02*
X20798000Y-13350000D01*
X20748000Y-8220000D02*
X20748000Y-8320000D01*
X20698000Y-8270000D02*
X20798000Y-8270000D01*
X20748000Y-8474000D02*
X20748000Y-8574000D01*
X20698000Y-8524000D02*
X20798000Y-8524000D01*
X20748000Y-8728000D02*
X20748000Y-8828000D01*
X20698000Y-8778000D02*
X20798000Y-8778000D01*
X20748000Y-8982000D02*
X20748000Y-9082000D01*
X20698000Y-9032000D02*
X20798000Y-9032000D01*
X20748000Y-9236000D02*
X20748000Y-9336000D01*
X20698000Y-9286000D02*
X20798000Y-9286000D01*
X20748000Y-9490000D02*
X20748000Y-9590000D01*
X20698000Y-9540000D02*
X20798000Y-9540000D01*
X20748000Y-9744000D02*
X20748000Y-9844000D01*
X20698000Y-9794000D02*
X20798000Y-9794000D01*
X20748000Y-9998000D02*
X20748000Y-10098000D01*
X20698000Y-10048000D02*
X20798000Y-10048000D01*
X20748000Y-10252000D02*
X20748000Y-10352000D01*
X20698000Y-10302000D02*
X20798000Y-10302000D01*
X20748000Y-10506000D02*
X20748000Y-10606000D01*
X20698000Y-10556000D02*
X20798000Y-10556000D01*
X14568200Y-4920540D02*
X14568200Y-5020540D01*
X14518200Y-4970540D02*
X14618200Y-4970540D01*
X14822200Y-4920540D02*
X14822200Y-5020540D01*
X14772200Y-4970540D02*
X14872200Y-4970540D01*
X15076200Y-4920540D02*
X15076200Y-5020540D01*
X15026200Y-4970540D02*
X15126200Y-4970540D01*
X10233191Y-13261891D02*
X10233191Y-13184109D01*
X10155409Y-13184109D01*
X10155409Y-13261891D01*
X10233191Y-13261891D01*
X10233191Y-13515891D02*
X10233191Y-13438109D01*
X10155409Y-13438109D01*
X10155409Y-13515891D01*
X10233191Y-13515891D01*
X10233191Y-13769891D02*
X10233191Y-13692109D01*
X10155409Y-13692109D01*
X10155409Y-13769891D01*
X10233191Y-13769891D01*
X7566191Y-13960391D02*
X7566191Y-13882609D01*
X7488409Y-13882609D01*
X7488409Y-13960391D01*
X7566191Y-13960391D01*
X8582191Y-13960391D02*
X8582191Y-13882609D01*
X8504409Y-13882609D01*
X8504409Y-13960391D01*
X8582191Y-13960391D01*
X6587500Y-13176000D02*
X6667500Y-13096000D01*
X6587500Y-13016000D01*
X6507500Y-13096000D01*
X6587500Y-13176000D01*
X6587500Y-13776000D02*
X6667500Y-13696000D01*
X6587500Y-13616000D01*
X6507500Y-13696000D01*
X6587500Y-13776000D01*
X7057500Y-13476000D02*
X7137500Y-13396000D01*
X7057500Y-13316000D01*
X6977500Y-13396000D01*
X7057500Y-13476000D01*
X5436500Y-14040500D02*
X5706500Y-14310500D01*
X5706500Y-14040500D02*
X5436500Y-14310500D01*
X5706500Y-14175500D02*
G75*
G03X5706500Y-14175500I-135000J0D01*
G01*
X5436500Y-4706000D02*
X5706500Y-4976000D01*
X5706500Y-4706000D02*
X5436500Y-4976000D01*
X5706500Y-4841000D02*
G75*
G03X5706500Y-4841000I-135000J0D01*
G01*
X20803500Y-4706000D02*
X21073500Y-4976000D01*
X21073500Y-4706000D02*
X20803500Y-4976000D01*
X21073500Y-4841000D02*
G75*
G03X21073500Y-4841000I-135000J0D01*
G01*
X20803500Y-14040500D02*
X21073500Y-14310500D01*
X21073500Y-14040500D02*
X20803500Y-14310500D01*
X21073500Y-14175500D02*
G75*
G03X21073500Y-14175500I-135000J0D01*
G01*
X15705500Y-4857000D02*
X16025500Y-5177000D01*
X16025500Y-4857000D02*
X15705500Y-5177000D01*
X15865500Y-4857000D02*
X15865500Y-5177000D01*
X15705500Y-5017000D02*
X16025500Y-5017000D01*
X18205500Y-4857000D02*
X18525500Y-5177000D01*
X18525500Y-4857000D02*
X18205500Y-5177000D01*
X18365500Y-4857000D02*
X18365500Y-5177000D01*
X18205500Y-5017000D02*
X18525500Y-5017000D01*
D12*
X5532428Y-14965714D02*
X5532428Y-14665714D01*
X5603857Y-14665714D01*
X5646714Y-14680000D01*
X5675286Y-14708571D01*
X5689571Y-14737143D01*
X5703857Y-14794286D01*
X5703857Y-14837143D01*
X5689571Y-14894286D01*
X5675286Y-14922857D01*
X5646714Y-14951429D01*
X5603857Y-14965714D01*
X5532428Y-14965714D01*
X5832428Y-14965714D02*
X5832428Y-14765714D01*
X5832428Y-14822857D02*
X5846714Y-14794286D01*
X5861000Y-14780000D01*
X5889571Y-14765714D01*
X5918143Y-14765714D01*
X6018143Y-14965714D02*
X6018143Y-14765714D01*
X6018143Y-14665714D02*
X6003857Y-14680000D01*
X6018143Y-14694286D01*
X6032428Y-14680000D01*
X6018143Y-14665714D01*
X6018143Y-14694286D01*
X6203857Y-14965714D02*
X6175286Y-14951429D01*
X6161000Y-14922857D01*
X6161000Y-14665714D01*
X6361000Y-14965714D02*
X6332428Y-14951429D01*
X6318143Y-14922857D01*
X6318143Y-14665714D01*
X6703857Y-14965714D02*
X6703857Y-14665714D01*
X6803857Y-14880000D01*
X6903857Y-14665714D01*
X6903857Y-14965714D01*
X7175286Y-14965714D02*
X7175286Y-14808571D01*
X7161000Y-14780000D01*
X7132428Y-14765714D01*
X7075286Y-14765714D01*
X7046714Y-14780000D01*
X7175286Y-14951429D02*
X7146714Y-14965714D01*
X7075286Y-14965714D01*
X7046714Y-14951429D01*
X7032428Y-14922857D01*
X7032428Y-14894286D01*
X7046714Y-14865714D01*
X7075286Y-14851429D01*
X7146714Y-14851429D01*
X7175286Y-14837143D01*
X7318143Y-14765714D02*
X7318143Y-15065714D01*
X7318143Y-14780000D02*
X7346714Y-14765714D01*
X7403857Y-14765714D01*
X7432428Y-14780000D01*
X7446714Y-14794286D01*
X7461000Y-14822857D01*
X7461000Y-14908571D01*
X7446714Y-14937143D01*
X7432428Y-14951429D01*
X7403857Y-14965714D01*
X7346714Y-14965714D01*
X7318143Y-14951429D01*
X7589571Y-14937143D02*
X7603857Y-14951429D01*
X7589571Y-14965714D01*
X7575286Y-14951429D01*
X7589571Y-14937143D01*
X7589571Y-14965714D01*
X7589571Y-14780000D02*
X7603857Y-14794286D01*
X7589571Y-14808571D01*
X7575286Y-14794286D01*
X7589571Y-14780000D01*
X7589571Y-14808571D01*
X5206000Y-15440000D02*
X5246000Y-15480000D01*
X5246000Y-15440000D02*
X5206000Y-15480000D01*
X5589571Y-15295714D02*
X5618143Y-15295714D01*
X5646714Y-15310000D01*
X5661000Y-15324286D01*
X5675286Y-15352857D01*
X5689571Y-15410000D01*
X5689571Y-15481429D01*
X5675286Y-15538571D01*
X5661000Y-15567143D01*
X5646714Y-15581429D01*
X5618143Y-15595714D01*
X5589571Y-15595714D01*
X5561000Y-15581429D01*
X5546714Y-15567143D01*
X5532428Y-15538571D01*
X5518143Y-15481429D01*
X5518143Y-15410000D01*
X5532428Y-15352857D01*
X5546714Y-15324286D01*
X5561000Y-15310000D01*
X5589571Y-15295714D01*
X5818143Y-15567143D02*
X5832428Y-15581429D01*
X5818143Y-15595714D01*
X5803857Y-15581429D01*
X5818143Y-15567143D01*
X5818143Y-15595714D01*
X6089571Y-15395714D02*
X6089571Y-15595714D01*
X6018143Y-15281429D02*
X5946714Y-15495714D01*
X6132428Y-15495714D01*
X6303857Y-15295714D02*
X6332428Y-15295714D01*
X6361000Y-15310000D01*
X6375286Y-15324286D01*
X6389571Y-15352857D01*
X6403857Y-15410000D01*
X6403857Y-15481429D01*
X6389571Y-15538571D01*
X6375286Y-15567143D01*
X6361000Y-15581429D01*
X6332428Y-15595714D01*
X6303857Y-15595714D01*
X6275286Y-15581429D01*
X6261000Y-15567143D01*
X6246714Y-15538571D01*
X6232428Y-15481429D01*
X6232428Y-15410000D01*
X6246714Y-15352857D01*
X6261000Y-15324286D01*
X6275286Y-15310000D01*
X6303857Y-15295714D01*
X6532428Y-15595714D02*
X6532428Y-15395714D01*
X6532428Y-15424286D02*
X6546714Y-15410000D01*
X6575286Y-15395714D01*
X6618143Y-15395714D01*
X6646714Y-15410000D01*
X6661000Y-15438571D01*
X6661000Y-15595714D01*
X6661000Y-15438571D02*
X6675286Y-15410000D01*
X6703857Y-15395714D01*
X6746714Y-15395714D01*
X6775286Y-15410000D01*
X6789571Y-15438571D01*
X6789571Y-15595714D01*
X6932428Y-15595714D02*
X6932428Y-15395714D01*
X6932428Y-15424286D02*
X6946714Y-15410000D01*
X6975286Y-15395714D01*
X7018143Y-15395714D01*
X7046714Y-15410000D01*
X7061000Y-15438571D01*
X7061000Y-15595714D01*
X7061000Y-15438571D02*
X7075286Y-15410000D01*
X7103857Y-15395714D01*
X7146714Y-15395714D01*
X7175286Y-15410000D01*
X7189571Y-15438571D01*
X7189571Y-15595714D01*
X7775286Y-15281429D02*
X7518143Y-15667143D01*
X8161000Y-15295714D02*
X8189571Y-15295714D01*
X8218143Y-15310000D01*
X8232428Y-15324286D01*
X8246714Y-15352857D01*
X8261000Y-15410000D01*
X8261000Y-15481429D01*
X8246714Y-15538571D01*
X8232428Y-15567143D01*
X8218143Y-15581429D01*
X8189571Y-15595714D01*
X8161000Y-15595714D01*
X8132428Y-15581429D01*
X8118143Y-15567143D01*
X8103857Y-15538571D01*
X8089571Y-15481429D01*
X8089571Y-15410000D01*
X8103857Y-15352857D01*
X8118143Y-15324286D01*
X8132428Y-15310000D01*
X8161000Y-15295714D01*
X8389571Y-15567143D02*
X8403857Y-15581429D01*
X8389571Y-15595714D01*
X8375286Y-15581429D01*
X8389571Y-15567143D01*
X8389571Y-15595714D01*
X8589571Y-15295714D02*
X8618143Y-15295714D01*
X8646714Y-15310000D01*
X8661000Y-15324286D01*
X8675286Y-15352857D01*
X8689571Y-15410000D01*
X8689571Y-15481429D01*
X8675286Y-15538571D01*
X8661000Y-15567143D01*
X8646714Y-15581429D01*
X8618143Y-15595714D01*
X8589571Y-15595714D01*
X8561000Y-15581429D01*
X8546714Y-15567143D01*
X8532428Y-15538571D01*
X8518143Y-15481429D01*
X8518143Y-15410000D01*
X8532428Y-15352857D01*
X8546714Y-15324286D01*
X8561000Y-15310000D01*
X8589571Y-15295714D01*
X8975286Y-15595714D02*
X8803857Y-15595714D01*
X8889571Y-15595714D02*
X8889571Y-15295714D01*
X8861000Y-15338571D01*
X8832428Y-15367143D01*
X8803857Y-15381429D01*
X9232428Y-15295714D02*
X9175286Y-15295714D01*
X9146714Y-15310000D01*
X9132428Y-15324286D01*
X9103857Y-15367143D01*
X9089571Y-15424286D01*
X9089571Y-15538571D01*
X9103857Y-15567143D01*
X9118143Y-15581429D01*
X9146714Y-15595714D01*
X9203857Y-15595714D01*
X9232428Y-15581429D01*
X9246714Y-15567143D01*
X9261000Y-15538571D01*
X9261000Y-15467143D01*
X9246714Y-15438571D01*
X9232428Y-15424286D01*
X9203857Y-15410000D01*
X9146714Y-15410000D01*
X9118143Y-15424286D01*
X9103857Y-15438571D01*
X9089571Y-15467143D01*
X9375286Y-15295714D02*
X9375286Y-15352857D01*
X9489571Y-15295714D02*
X9489571Y-15352857D01*
X9932428Y-15710000D02*
X9918143Y-15695714D01*
X9889571Y-15652857D01*
X9875286Y-15624286D01*
X9861000Y-15581429D01*
X9846714Y-15510000D01*
X9846714Y-15452857D01*
X9861000Y-15381429D01*
X9875286Y-15338571D01*
X9889571Y-15310000D01*
X9918143Y-15267143D01*
X9932428Y-15252857D01*
X10032428Y-15324286D02*
X10046714Y-15310000D01*
X10075286Y-15295714D01*
X10146714Y-15295714D01*
X10175286Y-15310000D01*
X10189571Y-15324286D01*
X10203857Y-15352857D01*
X10203857Y-15381429D01*
X10189571Y-15424286D01*
X10018143Y-15595714D01*
X10203857Y-15595714D01*
X10346714Y-15595714D02*
X10403857Y-15595714D01*
X10432428Y-15581429D01*
X10446714Y-15567143D01*
X10475286Y-15524286D01*
X10489571Y-15467143D01*
X10489571Y-15352857D01*
X10475286Y-15324286D01*
X10461000Y-15310000D01*
X10432428Y-15295714D01*
X10375286Y-15295714D01*
X10346714Y-15310000D01*
X10332428Y-15324286D01*
X10318143Y-15352857D01*
X10318143Y-15424286D01*
X10332428Y-15452857D01*
X10346714Y-15467143D01*
X10375286Y-15481429D01*
X10432428Y-15481429D01*
X10461000Y-15467143D01*
X10475286Y-15452857D01*
X10489571Y-15424286D01*
X10589571Y-15295714D02*
X10789571Y-15295714D01*
X10661000Y-15595714D01*
X11132428Y-15595714D02*
X11132428Y-15295714D01*
X11261000Y-15595714D02*
X11261000Y-15438571D01*
X11246714Y-15410000D01*
X11218143Y-15395714D01*
X11175286Y-15395714D01*
X11146714Y-15410000D01*
X11132428Y-15424286D01*
X11446714Y-15595714D02*
X11418143Y-15581429D01*
X11403857Y-15567143D01*
X11389571Y-15538571D01*
X11389571Y-15452857D01*
X11403857Y-15424286D01*
X11418143Y-15410000D01*
X11446714Y-15395714D01*
X11489571Y-15395714D01*
X11518143Y-15410000D01*
X11532428Y-15424286D01*
X11546714Y-15452857D01*
X11546714Y-15538571D01*
X11532428Y-15567143D01*
X11518143Y-15581429D01*
X11489571Y-15595714D01*
X11446714Y-15595714D01*
X11718143Y-15595714D02*
X11689571Y-15581429D01*
X11675286Y-15552857D01*
X11675286Y-15295714D01*
X11946714Y-15581429D02*
X11918143Y-15595714D01*
X11861000Y-15595714D01*
X11832428Y-15581429D01*
X11818143Y-15552857D01*
X11818143Y-15438571D01*
X11832428Y-15410000D01*
X11861000Y-15395714D01*
X11918143Y-15395714D01*
X11946714Y-15410000D01*
X11961000Y-15438571D01*
X11961000Y-15467143D01*
X11818143Y-15495714D01*
X12075286Y-15581429D02*
X12103857Y-15595714D01*
X12161000Y-15595714D01*
X12189571Y-15581429D01*
X12203857Y-15552857D01*
X12203857Y-15538571D01*
X12189571Y-15510000D01*
X12161000Y-15495714D01*
X12118143Y-15495714D01*
X12089571Y-15481429D01*
X12075286Y-15452857D01*
X12075286Y-15438571D01*
X12089571Y-15410000D01*
X12118143Y-15395714D01*
X12161000Y-15395714D01*
X12189571Y-15410000D01*
X12303857Y-15710000D02*
X12318143Y-15695714D01*
X12346714Y-15652857D01*
X12361000Y-15624286D01*
X12375286Y-15581429D01*
X12389571Y-15510000D01*
X12389571Y-15452857D01*
X12375286Y-15381429D01*
X12361000Y-15338571D01*
X12346714Y-15310000D01*
X12318143Y-15267143D01*
X12303857Y-15252857D01*
X5246000Y-15856000D02*
G75*
G03X5246000Y-15856000I-40000J0D01*
G01*
X5589571Y-15691714D02*
X5618143Y-15691714D01*
X5646714Y-15706000D01*
X5661000Y-15720286D01*
X5675286Y-15748857D01*
X5689571Y-15806000D01*
X5689571Y-15877429D01*
X5675286Y-15934571D01*
X5661000Y-15963143D01*
X5646714Y-15977429D01*
X5618143Y-15991714D01*
X5589571Y-15991714D01*
X5561000Y-15977429D01*
X5546714Y-15963143D01*
X5532428Y-15934571D01*
X5518143Y-15877429D01*
X5518143Y-15806000D01*
X5532428Y-15748857D01*
X5546714Y-15720286D01*
X5561000Y-15706000D01*
X5589571Y-15691714D01*
X5818143Y-15963143D02*
X5832428Y-15977429D01*
X5818143Y-15991714D01*
X5803857Y-15977429D01*
X5818143Y-15963143D01*
X5818143Y-15991714D01*
X6003857Y-15820286D02*
X5975286Y-15806000D01*
X5961000Y-15791714D01*
X5946714Y-15763143D01*
X5946714Y-15748857D01*
X5961000Y-15720286D01*
X5975286Y-15706000D01*
X6003857Y-15691714D01*
X6061000Y-15691714D01*
X6089571Y-15706000D01*
X6103857Y-15720286D01*
X6118143Y-15748857D01*
X6118143Y-15763143D01*
X6103857Y-15791714D01*
X6089571Y-15806000D01*
X6061000Y-15820286D01*
X6003857Y-15820286D01*
X5975286Y-15834571D01*
X5961000Y-15848857D01*
X5946714Y-15877429D01*
X5946714Y-15934571D01*
X5961000Y-15963143D01*
X5975286Y-15977429D01*
X6003857Y-15991714D01*
X6061000Y-15991714D01*
X6089571Y-15977429D01*
X6103857Y-15963143D01*
X6118143Y-15934571D01*
X6118143Y-15877429D01*
X6103857Y-15848857D01*
X6089571Y-15834571D01*
X6061000Y-15820286D01*
X6303857Y-15691714D02*
X6332428Y-15691714D01*
X6361000Y-15706000D01*
X6375286Y-15720286D01*
X6389571Y-15748857D01*
X6403857Y-15806000D01*
X6403857Y-15877429D01*
X6389571Y-15934571D01*
X6375286Y-15963143D01*
X6361000Y-15977429D01*
X6332428Y-15991714D01*
X6303857Y-15991714D01*
X6275286Y-15977429D01*
X6261000Y-15963143D01*
X6246714Y-15934571D01*
X6232428Y-15877429D01*
X6232428Y-15806000D01*
X6246714Y-15748857D01*
X6261000Y-15720286D01*
X6275286Y-15706000D01*
X6303857Y-15691714D01*
X6532428Y-15991714D02*
X6532428Y-15791714D01*
X6532428Y-15820286D02*
X6546714Y-15806000D01*
X6575286Y-15791714D01*
X6618143Y-15791714D01*
X6646714Y-15806000D01*
X6661000Y-15834571D01*
X6661000Y-15991714D01*
X6661000Y-15834571D02*
X6675286Y-15806000D01*
X6703857Y-15791714D01*
X6746714Y-15791714D01*
X6775286Y-15806000D01*
X6789571Y-15834571D01*
X6789571Y-15991714D01*
X6932428Y-15991714D02*
X6932428Y-15791714D01*
X6932428Y-15820286D02*
X6946714Y-15806000D01*
X6975286Y-15791714D01*
X7018143Y-15791714D01*
X7046714Y-15806000D01*
X7061000Y-15834571D01*
X7061000Y-15991714D01*
X7061000Y-15834571D02*
X7075286Y-15806000D01*
X7103857Y-15791714D01*
X7146714Y-15791714D01*
X7175286Y-15806000D01*
X7189571Y-15834571D01*
X7189571Y-15991714D01*
X7775286Y-15677429D02*
X7518143Y-16063143D01*
X8161000Y-15691714D02*
X8189571Y-15691714D01*
X8218143Y-15706000D01*
X8232428Y-15720286D01*
X8246714Y-15748857D01*
X8261000Y-15806000D01*
X8261000Y-15877429D01*
X8246714Y-15934571D01*
X8232428Y-15963143D01*
X8218143Y-15977429D01*
X8189571Y-15991714D01*
X8161000Y-15991714D01*
X8132428Y-15977429D01*
X8118143Y-15963143D01*
X8103857Y-15934571D01*
X8089571Y-15877429D01*
X8089571Y-15806000D01*
X8103857Y-15748857D01*
X8118143Y-15720286D01*
X8132428Y-15706000D01*
X8161000Y-15691714D01*
X8389571Y-15963143D02*
X8403857Y-15977429D01*
X8389571Y-15991714D01*
X8375286Y-15977429D01*
X8389571Y-15963143D01*
X8389571Y-15991714D01*
X8589571Y-15691714D02*
X8618143Y-15691714D01*
X8646714Y-15706000D01*
X8661000Y-15720286D01*
X8675286Y-15748857D01*
X8689571Y-15806000D01*
X8689571Y-15877429D01*
X8675286Y-15934571D01*
X8661000Y-15963143D01*
X8646714Y-15977429D01*
X8618143Y-15991714D01*
X8589571Y-15991714D01*
X8561000Y-15977429D01*
X8546714Y-15963143D01*
X8532428Y-15934571D01*
X8518143Y-15877429D01*
X8518143Y-15806000D01*
X8532428Y-15748857D01*
X8546714Y-15720286D01*
X8561000Y-15706000D01*
X8589571Y-15691714D01*
X8789571Y-15691714D02*
X8975286Y-15691714D01*
X8875286Y-15806000D01*
X8918143Y-15806000D01*
X8946714Y-15820286D01*
X8961000Y-15834571D01*
X8975286Y-15863143D01*
X8975286Y-15934571D01*
X8961000Y-15963143D01*
X8946714Y-15977429D01*
X8918143Y-15991714D01*
X8832428Y-15991714D01*
X8803857Y-15977429D01*
X8789571Y-15963143D01*
X9261000Y-15991714D02*
X9089571Y-15991714D01*
X9175286Y-15991714D02*
X9175286Y-15691714D01*
X9146714Y-15734571D01*
X9118143Y-15763143D01*
X9089571Y-15777429D01*
X9375286Y-15691714D02*
X9375286Y-15748857D01*
X9489571Y-15691714D02*
X9489571Y-15748857D01*
X9932428Y-16106000D02*
X9918143Y-16091714D01*
X9889571Y-16048857D01*
X9875286Y-16020286D01*
X9861000Y-15977429D01*
X9846714Y-15906000D01*
X9846714Y-15848857D01*
X9861000Y-15777429D01*
X9875286Y-15734571D01*
X9889571Y-15706000D01*
X9918143Y-15663143D01*
X9932428Y-15648857D01*
X10032428Y-15720286D02*
X10046714Y-15706000D01*
X10075286Y-15691714D01*
X10146714Y-15691714D01*
X10175286Y-15706000D01*
X10189571Y-15720286D01*
X10203857Y-15748857D01*
X10203857Y-15777429D01*
X10189571Y-15820286D01*
X10018143Y-15991714D01*
X10203857Y-15991714D01*
X10346714Y-15991714D02*
X10403857Y-15991714D01*
X10432428Y-15977429D01*
X10446714Y-15963143D01*
X10475286Y-15920286D01*
X10489571Y-15863143D01*
X10489571Y-15748857D01*
X10475286Y-15720286D01*
X10461000Y-15706000D01*
X10432428Y-15691714D01*
X10375286Y-15691714D01*
X10346714Y-15706000D01*
X10332428Y-15720286D01*
X10318143Y-15748857D01*
X10318143Y-15820286D01*
X10332428Y-15848857D01*
X10346714Y-15863143D01*
X10375286Y-15877429D01*
X10432428Y-15877429D01*
X10461000Y-15863143D01*
X10475286Y-15848857D01*
X10489571Y-15820286D01*
X10761000Y-15691714D02*
X10618143Y-15691714D01*
X10603857Y-15834571D01*
X10618143Y-15820286D01*
X10646714Y-15806000D01*
X10718143Y-15806000D01*
X10746714Y-15820286D01*
X10761000Y-15834571D01*
X10775286Y-15863143D01*
X10775286Y-15934571D01*
X10761000Y-15963143D01*
X10746714Y-15977429D01*
X10718143Y-15991714D01*
X10646714Y-15991714D01*
X10618143Y-15977429D01*
X10603857Y-15963143D01*
X11132428Y-15991714D02*
X11132428Y-15691714D01*
X11261000Y-15991714D02*
X11261000Y-15834571D01*
X11246714Y-15806000D01*
X11218143Y-15791714D01*
X11175286Y-15791714D01*
X11146714Y-15806000D01*
X11132428Y-15820286D01*
X11446714Y-15991714D02*
X11418143Y-15977429D01*
X11403857Y-15963143D01*
X11389571Y-15934571D01*
X11389571Y-15848857D01*
X11403857Y-15820286D01*
X11418143Y-15806000D01*
X11446714Y-15791714D01*
X11489571Y-15791714D01*
X11518143Y-15806000D01*
X11532428Y-15820286D01*
X11546714Y-15848857D01*
X11546714Y-15934571D01*
X11532428Y-15963143D01*
X11518143Y-15977429D01*
X11489571Y-15991714D01*
X11446714Y-15991714D01*
X11718143Y-15991714D02*
X11689571Y-15977429D01*
X11675286Y-15948857D01*
X11675286Y-15691714D01*
X11946714Y-15977429D02*
X11918143Y-15991714D01*
X11861000Y-15991714D01*
X11832428Y-15977429D01*
X11818143Y-15948857D01*
X11818143Y-15834571D01*
X11832428Y-15806000D01*
X11861000Y-15791714D01*
X11918143Y-15791714D01*
X11946714Y-15806000D01*
X11961000Y-15834571D01*
X11961000Y-15863143D01*
X11818143Y-15891714D01*
X12075286Y-15977429D02*
X12103857Y-15991714D01*
X12161000Y-15991714D01*
X12189571Y-15977429D01*
X12203857Y-15948857D01*
X12203857Y-15934571D01*
X12189571Y-15906000D01*
X12161000Y-15891714D01*
X12118143Y-15891714D01*
X12089571Y-15877429D01*
X12075286Y-15848857D01*
X12075286Y-15834571D01*
X12089571Y-15806000D01*
X12118143Y-15791714D01*
X12161000Y-15791714D01*
X12189571Y-15806000D01*
X12303857Y-16106000D02*
X12318143Y-16091714D01*
X12346714Y-16048857D01*
X12361000Y-16020286D01*
X12375286Y-15977429D01*
X12389571Y-15906000D01*
X12389571Y-15848857D01*
X12375286Y-15777429D01*
X12361000Y-15734571D01*
X12346714Y-15706000D01*
X12318143Y-15663143D01*
X12303857Y-15648857D01*
X5196000Y-16202000D02*
X5196000Y-16302000D01*
X5146000Y-16252000D02*
X5246000Y-16252000D01*
X5689571Y-16387714D02*
X5518143Y-16387714D01*
X5603857Y-16387714D02*
X5603857Y-16087714D01*
X5575286Y-16130571D01*
X5546714Y-16159143D01*
X5518143Y-16173429D01*
X5818143Y-16359143D02*
X5832428Y-16373429D01*
X5818143Y-16387714D01*
X5803857Y-16373429D01*
X5818143Y-16359143D01*
X5818143Y-16387714D01*
X6018143Y-16087714D02*
X6046714Y-16087714D01*
X6075286Y-16102000D01*
X6089571Y-16116286D01*
X6103857Y-16144857D01*
X6118143Y-16202000D01*
X6118143Y-16273429D01*
X6103857Y-16330571D01*
X6089571Y-16359143D01*
X6075286Y-16373429D01*
X6046714Y-16387714D01*
X6018143Y-16387714D01*
X5989571Y-16373429D01*
X5975286Y-16359143D01*
X5961000Y-16330571D01*
X5946714Y-16273429D01*
X5946714Y-16202000D01*
X5961000Y-16144857D01*
X5975286Y-16116286D01*
X5989571Y-16102000D01*
X6018143Y-16087714D01*
X6303857Y-16087714D02*
X6332428Y-16087714D01*
X6361000Y-16102000D01*
X6375286Y-16116286D01*
X6389571Y-16144857D01*
X6403857Y-16202000D01*
X6403857Y-16273429D01*
X6389571Y-16330571D01*
X6375286Y-16359143D01*
X6361000Y-16373429D01*
X6332428Y-16387714D01*
X6303857Y-16387714D01*
X6275286Y-16373429D01*
X6261000Y-16359143D01*
X6246714Y-16330571D01*
X6232428Y-16273429D01*
X6232428Y-16202000D01*
X6246714Y-16144857D01*
X6261000Y-16116286D01*
X6275286Y-16102000D01*
X6303857Y-16087714D01*
X6532428Y-16387714D02*
X6532428Y-16187714D01*
X6532428Y-16216286D02*
X6546714Y-16202000D01*
X6575286Y-16187714D01*
X6618143Y-16187714D01*
X6646714Y-16202000D01*
X6661000Y-16230571D01*
X6661000Y-16387714D01*
X6661000Y-16230571D02*
X6675286Y-16202000D01*
X6703857Y-16187714D01*
X6746714Y-16187714D01*
X6775286Y-16202000D01*
X6789571Y-16230571D01*
X6789571Y-16387714D01*
X6932428Y-16387714D02*
X6932428Y-16187714D01*
X6932428Y-16216286D02*
X6946714Y-16202000D01*
X6975286Y-16187714D01*
X7018143Y-16187714D01*
X7046714Y-16202000D01*
X7061000Y-16230571D01*
X7061000Y-16387714D01*
X7061000Y-16230571D02*
X7075286Y-16202000D01*
X7103857Y-16187714D01*
X7146714Y-16187714D01*
X7175286Y-16202000D01*
X7189571Y-16230571D01*
X7189571Y-16387714D01*
X7775286Y-16073429D02*
X7518143Y-16459143D01*
X8161000Y-16087714D02*
X8189571Y-16087714D01*
X8218143Y-16102000D01*
X8232428Y-16116286D01*
X8246714Y-16144857D01*
X8261000Y-16202000D01*
X8261000Y-16273429D01*
X8246714Y-16330571D01*
X8232428Y-16359143D01*
X8218143Y-16373429D01*
X8189571Y-16387714D01*
X8161000Y-16387714D01*
X8132428Y-16373429D01*
X8118143Y-16359143D01*
X8103857Y-16330571D01*
X8089571Y-16273429D01*
X8089571Y-16202000D01*
X8103857Y-16144857D01*
X8118143Y-16116286D01*
X8132428Y-16102000D01*
X8161000Y-16087714D01*
X8389571Y-16359143D02*
X8403857Y-16373429D01*
X8389571Y-16387714D01*
X8375286Y-16373429D01*
X8389571Y-16359143D01*
X8389571Y-16387714D01*
X8589571Y-16087714D02*
X8618143Y-16087714D01*
X8646714Y-16102000D01*
X8661000Y-16116286D01*
X8675286Y-16144857D01*
X8689571Y-16202000D01*
X8689571Y-16273429D01*
X8675286Y-16330571D01*
X8661000Y-16359143D01*
X8646714Y-16373429D01*
X8618143Y-16387714D01*
X8589571Y-16387714D01*
X8561000Y-16373429D01*
X8546714Y-16359143D01*
X8532428Y-16330571D01*
X8518143Y-16273429D01*
X8518143Y-16202000D01*
X8532428Y-16144857D01*
X8546714Y-16116286D01*
X8561000Y-16102000D01*
X8589571Y-16087714D01*
X8789571Y-16087714D02*
X8975286Y-16087714D01*
X8875286Y-16202000D01*
X8918143Y-16202000D01*
X8946714Y-16216286D01*
X8961000Y-16230571D01*
X8975286Y-16259143D01*
X8975286Y-16330571D01*
X8961000Y-16359143D01*
X8946714Y-16373429D01*
X8918143Y-16387714D01*
X8832428Y-16387714D01*
X8803857Y-16373429D01*
X8789571Y-16359143D01*
X9118143Y-16387714D02*
X9175286Y-16387714D01*
X9203857Y-16373429D01*
X9218143Y-16359143D01*
X9246714Y-16316286D01*
X9261000Y-16259143D01*
X9261000Y-16144857D01*
X9246714Y-16116286D01*
X9232428Y-16102000D01*
X9203857Y-16087714D01*
X9146714Y-16087714D01*
X9118143Y-16102000D01*
X9103857Y-16116286D01*
X9089571Y-16144857D01*
X9089571Y-16216286D01*
X9103857Y-16244857D01*
X9118143Y-16259143D01*
X9146714Y-16273429D01*
X9203857Y-16273429D01*
X9232428Y-16259143D01*
X9246714Y-16244857D01*
X9261000Y-16216286D01*
X9375286Y-16087714D02*
X9375286Y-16144857D01*
X9489571Y-16087714D02*
X9489571Y-16144857D01*
X9932428Y-16502000D02*
X9918143Y-16487714D01*
X9889571Y-16444857D01*
X9875286Y-16416286D01*
X9861000Y-16373429D01*
X9846714Y-16302000D01*
X9846714Y-16244857D01*
X9861000Y-16173429D01*
X9875286Y-16130571D01*
X9889571Y-16102000D01*
X9918143Y-16059143D01*
X9932428Y-16044857D01*
X10089571Y-16216286D02*
X10061000Y-16202000D01*
X10046714Y-16187714D01*
X10032428Y-16159143D01*
X10032428Y-16144857D01*
X10046714Y-16116286D01*
X10061000Y-16102000D01*
X10089571Y-16087714D01*
X10146714Y-16087714D01*
X10175286Y-16102000D01*
X10189571Y-16116286D01*
X10203857Y-16144857D01*
X10203857Y-16159143D01*
X10189571Y-16187714D01*
X10175286Y-16202000D01*
X10146714Y-16216286D01*
X10089571Y-16216286D01*
X10061000Y-16230571D01*
X10046714Y-16244857D01*
X10032428Y-16273429D01*
X10032428Y-16330571D01*
X10046714Y-16359143D01*
X10061000Y-16373429D01*
X10089571Y-16387714D01*
X10146714Y-16387714D01*
X10175286Y-16373429D01*
X10189571Y-16359143D01*
X10203857Y-16330571D01*
X10203857Y-16273429D01*
X10189571Y-16244857D01*
X10175286Y-16230571D01*
X10146714Y-16216286D01*
X10461000Y-16187714D02*
X10461000Y-16387714D01*
X10389571Y-16073429D02*
X10318143Y-16287714D01*
X10503857Y-16287714D01*
X10846714Y-16387714D02*
X10846714Y-16087714D01*
X10975286Y-16387714D02*
X10975286Y-16230571D01*
X10961000Y-16202000D01*
X10932428Y-16187714D01*
X10889571Y-16187714D01*
X10861000Y-16202000D01*
X10846714Y-16216286D01*
X11161000Y-16387714D02*
X11132428Y-16373429D01*
X11118143Y-16359143D01*
X11103857Y-16330571D01*
X11103857Y-16244857D01*
X11118143Y-16216286D01*
X11132428Y-16202000D01*
X11161000Y-16187714D01*
X11203857Y-16187714D01*
X11232428Y-16202000D01*
X11246714Y-16216286D01*
X11261000Y-16244857D01*
X11261000Y-16330571D01*
X11246714Y-16359143D01*
X11232428Y-16373429D01*
X11203857Y-16387714D01*
X11161000Y-16387714D01*
X11432428Y-16387714D02*
X11403857Y-16373429D01*
X11389571Y-16344857D01*
X11389571Y-16087714D01*
X11661000Y-16373429D02*
X11632428Y-16387714D01*
X11575286Y-16387714D01*
X11546714Y-16373429D01*
X11532428Y-16344857D01*
X11532428Y-16230571D01*
X11546714Y-16202000D01*
X11575286Y-16187714D01*
X11632428Y-16187714D01*
X11661000Y-16202000D01*
X11675286Y-16230571D01*
X11675286Y-16259143D01*
X11532428Y-16287714D01*
X11789571Y-16373429D02*
X11818143Y-16387714D01*
X11875286Y-16387714D01*
X11903857Y-16373429D01*
X11918143Y-16344857D01*
X11918143Y-16330571D01*
X11903857Y-16302000D01*
X11875286Y-16287714D01*
X11832428Y-16287714D01*
X11803857Y-16273429D01*
X11789571Y-16244857D01*
X11789571Y-16230571D01*
X11803857Y-16202000D01*
X11832428Y-16187714D01*
X11875286Y-16187714D01*
X11903857Y-16202000D01*
X12275286Y-16273429D02*
X12503857Y-16273429D01*
X12389571Y-16387714D02*
X12389571Y-16159143D01*
X13018143Y-16087714D02*
X12875286Y-16087714D01*
X12861000Y-16230571D01*
X12875286Y-16216286D01*
X12903857Y-16202000D01*
X12975286Y-16202000D01*
X13003857Y-16216286D01*
X13018143Y-16230571D01*
X13032428Y-16259143D01*
X13032428Y-16330571D01*
X13018143Y-16359143D01*
X13003857Y-16373429D01*
X12975286Y-16387714D01*
X12903857Y-16387714D01*
X12875286Y-16373429D01*
X12861000Y-16359143D01*
X13375286Y-16373429D02*
X13403857Y-16387714D01*
X13461000Y-16387714D01*
X13489571Y-16373429D01*
X13503857Y-16344857D01*
X13503857Y-16330571D01*
X13489571Y-16302000D01*
X13461000Y-16287714D01*
X13418143Y-16287714D01*
X13389571Y-16273429D01*
X13375286Y-16244857D01*
X13375286Y-16230571D01*
X13389571Y-16202000D01*
X13418143Y-16187714D01*
X13461000Y-16187714D01*
X13489571Y-16202000D01*
X13675286Y-16387714D02*
X13646714Y-16373429D01*
X13632428Y-16344857D01*
X13632428Y-16087714D01*
X13832428Y-16387714D02*
X13803857Y-16373429D01*
X13789571Y-16359143D01*
X13775286Y-16330571D01*
X13775286Y-16244857D01*
X13789571Y-16216286D01*
X13803857Y-16202000D01*
X13832428Y-16187714D01*
X13875286Y-16187714D01*
X13903857Y-16202000D01*
X13918143Y-16216286D01*
X13932428Y-16244857D01*
X13932428Y-16330571D01*
X13918143Y-16359143D01*
X13903857Y-16373429D01*
X13875286Y-16387714D01*
X13832428Y-16387714D01*
X14018143Y-16187714D02*
X14132428Y-16187714D01*
X14061000Y-16087714D02*
X14061000Y-16344857D01*
X14075286Y-16373429D01*
X14103857Y-16387714D01*
X14132428Y-16387714D01*
X14218143Y-16373429D02*
X14246714Y-16387714D01*
X14303857Y-16387714D01*
X14332428Y-16373429D01*
X14346714Y-16344857D01*
X14346714Y-16330571D01*
X14332428Y-16302000D01*
X14303857Y-16287714D01*
X14261000Y-16287714D01*
X14232428Y-16273429D01*
X14218143Y-16244857D01*
X14218143Y-16230571D01*
X14232428Y-16202000D01*
X14261000Y-16187714D01*
X14303857Y-16187714D01*
X14332428Y-16202000D01*
X14446714Y-16502000D02*
X14461000Y-16487714D01*
X14489571Y-16444857D01*
X14503857Y-16416286D01*
X14518143Y-16373429D01*
X14532428Y-16302000D01*
X14532428Y-16244857D01*
X14518143Y-16173429D01*
X14503857Y-16130571D01*
X14489571Y-16102000D01*
X14461000Y-16059143D01*
X14446714Y-16044857D01*
X5229891Y-16686891D02*
X5229891Y-16609109D01*
X5152109Y-16609109D01*
X5152109Y-16686891D01*
X5229891Y-16686891D01*
X5689571Y-16783714D02*
X5518143Y-16783714D01*
X5603857Y-16783714D02*
X5603857Y-16483714D01*
X5575286Y-16526571D01*
X5546714Y-16555143D01*
X5518143Y-16569429D01*
X5818143Y-16755143D02*
X5832428Y-16769429D01*
X5818143Y-16783714D01*
X5803857Y-16769429D01*
X5818143Y-16755143D01*
X5818143Y-16783714D01*
X6118143Y-16783714D02*
X5946714Y-16783714D01*
X6032428Y-16783714D02*
X6032428Y-16483714D01*
X6003857Y-16526571D01*
X5975286Y-16555143D01*
X5946714Y-16569429D01*
X6303857Y-16483714D02*
X6332428Y-16483714D01*
X6361000Y-16498000D01*
X6375286Y-16512286D01*
X6389571Y-16540857D01*
X6403857Y-16598000D01*
X6403857Y-16669429D01*
X6389571Y-16726571D01*
X6375286Y-16755143D01*
X6361000Y-16769429D01*
X6332428Y-16783714D01*
X6303857Y-16783714D01*
X6275286Y-16769429D01*
X6261000Y-16755143D01*
X6246714Y-16726571D01*
X6232428Y-16669429D01*
X6232428Y-16598000D01*
X6246714Y-16540857D01*
X6261000Y-16512286D01*
X6275286Y-16498000D01*
X6303857Y-16483714D01*
X6532428Y-16783714D02*
X6532428Y-16583714D01*
X6532428Y-16612286D02*
X6546714Y-16598000D01*
X6575286Y-16583714D01*
X6618143Y-16583714D01*
X6646714Y-16598000D01*
X6661000Y-16626571D01*
X6661000Y-16783714D01*
X6661000Y-16626571D02*
X6675286Y-16598000D01*
X6703857Y-16583714D01*
X6746714Y-16583714D01*
X6775286Y-16598000D01*
X6789571Y-16626571D01*
X6789571Y-16783714D01*
X6932428Y-16783714D02*
X6932428Y-16583714D01*
X6932428Y-16612286D02*
X6946714Y-16598000D01*
X6975286Y-16583714D01*
X7018143Y-16583714D01*
X7046714Y-16598000D01*
X7061000Y-16626571D01*
X7061000Y-16783714D01*
X7061000Y-16626571D02*
X7075286Y-16598000D01*
X7103857Y-16583714D01*
X7146714Y-16583714D01*
X7175286Y-16598000D01*
X7189571Y-16626571D01*
X7189571Y-16783714D01*
X7775286Y-16469429D02*
X7518143Y-16855143D01*
X8161000Y-16483714D02*
X8189571Y-16483714D01*
X8218143Y-16498000D01*
X8232428Y-16512286D01*
X8246714Y-16540857D01*
X8261000Y-16598000D01*
X8261000Y-16669429D01*
X8246714Y-16726571D01*
X8232428Y-16755143D01*
X8218143Y-16769429D01*
X8189571Y-16783714D01*
X8161000Y-16783714D01*
X8132428Y-16769429D01*
X8118143Y-16755143D01*
X8103857Y-16726571D01*
X8089571Y-16669429D01*
X8089571Y-16598000D01*
X8103857Y-16540857D01*
X8118143Y-16512286D01*
X8132428Y-16498000D01*
X8161000Y-16483714D01*
X8389571Y-16755143D02*
X8403857Y-16769429D01*
X8389571Y-16783714D01*
X8375286Y-16769429D01*
X8389571Y-16755143D01*
X8389571Y-16783714D01*
X8589571Y-16483714D02*
X8618143Y-16483714D01*
X8646714Y-16498000D01*
X8661000Y-16512286D01*
X8675286Y-16540857D01*
X8689571Y-16598000D01*
X8689571Y-16669429D01*
X8675286Y-16726571D01*
X8661000Y-16755143D01*
X8646714Y-16769429D01*
X8618143Y-16783714D01*
X8589571Y-16783714D01*
X8561000Y-16769429D01*
X8546714Y-16755143D01*
X8532428Y-16726571D01*
X8518143Y-16669429D01*
X8518143Y-16598000D01*
X8532428Y-16540857D01*
X8546714Y-16512286D01*
X8561000Y-16498000D01*
X8589571Y-16483714D01*
X8946714Y-16583714D02*
X8946714Y-16783714D01*
X8875286Y-16469429D02*
X8803857Y-16683714D01*
X8989571Y-16683714D01*
X9075286Y-16483714D02*
X9261000Y-16483714D01*
X9161000Y-16598000D01*
X9203857Y-16598000D01*
X9232428Y-16612286D01*
X9246714Y-16626571D01*
X9261000Y-16655143D01*
X9261000Y-16726571D01*
X9246714Y-16755143D01*
X9232428Y-16769429D01*
X9203857Y-16783714D01*
X9118143Y-16783714D01*
X9089571Y-16769429D01*
X9075286Y-16755143D01*
X9375286Y-16483714D02*
X9375286Y-16540857D01*
X9489571Y-16483714D02*
X9489571Y-16540857D01*
X9932428Y-16898000D02*
X9918143Y-16883714D01*
X9889571Y-16840857D01*
X9875286Y-16812286D01*
X9861000Y-16769429D01*
X9846714Y-16698000D01*
X9846714Y-16640857D01*
X9861000Y-16569429D01*
X9875286Y-16526571D01*
X9889571Y-16498000D01*
X9918143Y-16455143D01*
X9932428Y-16440857D01*
X10189571Y-16483714D02*
X10046714Y-16483714D01*
X10032428Y-16626571D01*
X10046714Y-16612286D01*
X10075286Y-16598000D01*
X10146714Y-16598000D01*
X10175286Y-16612286D01*
X10189571Y-16626571D01*
X10203857Y-16655143D01*
X10203857Y-16726571D01*
X10189571Y-16755143D01*
X10175286Y-16769429D01*
X10146714Y-16783714D01*
X10075286Y-16783714D01*
X10046714Y-16769429D01*
X10032428Y-16755143D01*
X10561000Y-16783714D02*
X10561000Y-16483714D01*
X10689571Y-16783714D02*
X10689571Y-16626571D01*
X10675286Y-16598000D01*
X10646714Y-16583714D01*
X10603857Y-16583714D01*
X10575286Y-16598000D01*
X10561000Y-16612286D01*
X10875286Y-16783714D02*
X10846714Y-16769429D01*
X10832428Y-16755143D01*
X10818143Y-16726571D01*
X10818143Y-16640857D01*
X10832428Y-16612286D01*
X10846714Y-16598000D01*
X10875286Y-16583714D01*
X10918143Y-16583714D01*
X10946714Y-16598000D01*
X10961000Y-16612286D01*
X10975286Y-16640857D01*
X10975286Y-16726571D01*
X10961000Y-16755143D01*
X10946714Y-16769429D01*
X10918143Y-16783714D01*
X10875286Y-16783714D01*
X11146714Y-16783714D02*
X11118143Y-16769429D01*
X11103857Y-16740857D01*
X11103857Y-16483714D01*
X11375286Y-16769429D02*
X11346714Y-16783714D01*
X11289571Y-16783714D01*
X11261000Y-16769429D01*
X11246714Y-16740857D01*
X11246714Y-16626571D01*
X11261000Y-16598000D01*
X11289571Y-16583714D01*
X11346714Y-16583714D01*
X11375286Y-16598000D01*
X11389571Y-16626571D01*
X11389571Y-16655143D01*
X11246714Y-16683714D01*
X11503857Y-16769429D02*
X11532428Y-16783714D01*
X11589571Y-16783714D01*
X11618143Y-16769429D01*
X11632428Y-16740857D01*
X11632428Y-16726571D01*
X11618143Y-16698000D01*
X11589571Y-16683714D01*
X11546714Y-16683714D01*
X11518143Y-16669429D01*
X11503857Y-16640857D01*
X11503857Y-16626571D01*
X11518143Y-16598000D01*
X11546714Y-16583714D01*
X11589571Y-16583714D01*
X11618143Y-16598000D01*
X11732428Y-16898000D02*
X11746714Y-16883714D01*
X11775286Y-16840857D01*
X11789571Y-16812286D01*
X11803857Y-16769429D01*
X11818143Y-16698000D01*
X11818143Y-16640857D01*
X11803857Y-16569429D01*
X11789571Y-16526571D01*
X11775286Y-16498000D01*
X11746714Y-16455143D01*
X11732428Y-16440857D01*
X5166000Y-17124000D02*
X5246000Y-17044000D01*
X5166000Y-16964000D01*
X5086000Y-17044000D01*
X5166000Y-17124000D01*
X5689571Y-17179714D02*
X5518143Y-17179714D01*
X5603857Y-17179714D02*
X5603857Y-16879714D01*
X5575286Y-16922572D01*
X5546714Y-16951143D01*
X5518143Y-16965429D01*
X5818143Y-17151143D02*
X5832428Y-17165429D01*
X5818143Y-17179714D01*
X5803857Y-17165429D01*
X5818143Y-17151143D01*
X5818143Y-17179714D01*
X6089571Y-16879714D02*
X6032428Y-16879714D01*
X6003857Y-16894000D01*
X5989571Y-16908286D01*
X5961000Y-16951143D01*
X5946714Y-17008286D01*
X5946714Y-17122572D01*
X5961000Y-17151143D01*
X5975286Y-17165429D01*
X6003857Y-17179714D01*
X6061000Y-17179714D01*
X6089571Y-17165429D01*
X6103857Y-17151143D01*
X6118143Y-17122572D01*
X6118143Y-17051143D01*
X6103857Y-17022572D01*
X6089571Y-17008286D01*
X6061000Y-16994000D01*
X6003857Y-16994000D01*
X5975286Y-17008286D01*
X5961000Y-17022572D01*
X5946714Y-17051143D01*
X6303857Y-16879714D02*
X6332428Y-16879714D01*
X6361000Y-16894000D01*
X6375286Y-16908286D01*
X6389571Y-16936857D01*
X6403857Y-16994000D01*
X6403857Y-17065429D01*
X6389571Y-17122572D01*
X6375286Y-17151143D01*
X6361000Y-17165429D01*
X6332428Y-17179714D01*
X6303857Y-17179714D01*
X6275286Y-17165429D01*
X6261000Y-17151143D01*
X6246714Y-17122572D01*
X6232428Y-17065429D01*
X6232428Y-16994000D01*
X6246714Y-16936857D01*
X6261000Y-16908286D01*
X6275286Y-16894000D01*
X6303857Y-16879714D01*
X6532428Y-17179714D02*
X6532428Y-16979714D01*
X6532428Y-17008286D02*
X6546714Y-16994000D01*
X6575286Y-16979714D01*
X6618143Y-16979714D01*
X6646714Y-16994000D01*
X6661000Y-17022572D01*
X6661000Y-17179714D01*
X6661000Y-17022572D02*
X6675286Y-16994000D01*
X6703857Y-16979714D01*
X6746714Y-16979714D01*
X6775286Y-16994000D01*
X6789571Y-17022572D01*
X6789571Y-17179714D01*
X6932428Y-17179714D02*
X6932428Y-16979714D01*
X6932428Y-17008286D02*
X6946714Y-16994000D01*
X6975286Y-16979714D01*
X7018143Y-16979714D01*
X7046714Y-16994000D01*
X7061000Y-17022572D01*
X7061000Y-17179714D01*
X7061000Y-17022572D02*
X7075286Y-16994000D01*
X7103857Y-16979714D01*
X7146714Y-16979714D01*
X7175286Y-16994000D01*
X7189571Y-17022572D01*
X7189571Y-17179714D01*
X7775286Y-16865429D02*
X7518143Y-17251143D01*
X8161000Y-16879714D02*
X8189571Y-16879714D01*
X8218143Y-16894000D01*
X8232428Y-16908286D01*
X8246714Y-16936857D01*
X8261000Y-16994000D01*
X8261000Y-17065429D01*
X8246714Y-17122572D01*
X8232428Y-17151143D01*
X8218143Y-17165429D01*
X8189571Y-17179714D01*
X8161000Y-17179714D01*
X8132428Y-17165429D01*
X8118143Y-17151143D01*
X8103857Y-17122572D01*
X8089571Y-17065429D01*
X8089571Y-16994000D01*
X8103857Y-16936857D01*
X8118143Y-16908286D01*
X8132428Y-16894000D01*
X8161000Y-16879714D01*
X8389571Y-17151143D02*
X8403857Y-17165429D01*
X8389571Y-17179714D01*
X8375286Y-17165429D01*
X8389571Y-17151143D01*
X8389571Y-17179714D01*
X8589571Y-16879714D02*
X8618143Y-16879714D01*
X8646714Y-16894000D01*
X8661000Y-16908286D01*
X8675286Y-16936857D01*
X8689571Y-16994000D01*
X8689571Y-17065429D01*
X8675286Y-17122572D01*
X8661000Y-17151143D01*
X8646714Y-17165429D01*
X8618143Y-17179714D01*
X8589571Y-17179714D01*
X8561000Y-17165429D01*
X8546714Y-17151143D01*
X8532428Y-17122572D01*
X8518143Y-17065429D01*
X8518143Y-16994000D01*
X8532428Y-16936857D01*
X8546714Y-16908286D01*
X8561000Y-16894000D01*
X8589571Y-16879714D01*
X8946714Y-16879714D02*
X8889571Y-16879714D01*
X8861000Y-16894000D01*
X8846714Y-16908286D01*
X8818143Y-16951143D01*
X8803857Y-17008286D01*
X8803857Y-17122572D01*
X8818143Y-17151143D01*
X8832428Y-17165429D01*
X8861000Y-17179714D01*
X8918143Y-17179714D01*
X8946714Y-17165429D01*
X8961000Y-17151143D01*
X8975286Y-17122572D01*
X8975286Y-17051143D01*
X8961000Y-17022572D01*
X8946714Y-17008286D01*
X8918143Y-16994000D01*
X8861000Y-16994000D01*
X8832428Y-17008286D01*
X8818143Y-17022572D01*
X8803857Y-17051143D01*
X9075286Y-16879714D02*
X9261000Y-16879714D01*
X9161000Y-16994000D01*
X9203857Y-16994000D01*
X9232428Y-17008286D01*
X9246714Y-17022572D01*
X9261000Y-17051143D01*
X9261000Y-17122572D01*
X9246714Y-17151143D01*
X9232428Y-17165429D01*
X9203857Y-17179714D01*
X9118143Y-17179714D01*
X9089571Y-17165429D01*
X9075286Y-17151143D01*
X9375286Y-16879714D02*
X9375286Y-16936857D01*
X9489571Y-16879714D02*
X9489571Y-16936857D01*
X9932428Y-17294000D02*
X9918143Y-17279714D01*
X9889571Y-17236857D01*
X9875286Y-17208286D01*
X9861000Y-17165429D01*
X9846714Y-17094000D01*
X9846714Y-17036857D01*
X9861000Y-16965429D01*
X9875286Y-16922572D01*
X9889571Y-16894000D01*
X9918143Y-16851143D01*
X9932428Y-16836857D01*
X10018143Y-16879714D02*
X10203857Y-16879714D01*
X10103857Y-16994000D01*
X10146714Y-16994000D01*
X10175286Y-17008286D01*
X10189571Y-17022572D01*
X10203857Y-17051143D01*
X10203857Y-17122572D01*
X10189571Y-17151143D01*
X10175286Y-17165429D01*
X10146714Y-17179714D01*
X10061000Y-17179714D01*
X10032428Y-17165429D01*
X10018143Y-17151143D01*
X10561000Y-17179714D02*
X10561000Y-16879714D01*
X10689571Y-17179714D02*
X10689571Y-17022572D01*
X10675286Y-16994000D01*
X10646714Y-16979714D01*
X10603857Y-16979714D01*
X10575286Y-16994000D01*
X10561000Y-17008286D01*
X10875286Y-17179714D02*
X10846714Y-17165429D01*
X10832428Y-17151143D01*
X10818143Y-17122572D01*
X10818143Y-17036857D01*
X10832428Y-17008286D01*
X10846714Y-16994000D01*
X10875286Y-16979714D01*
X10918143Y-16979714D01*
X10946714Y-16994000D01*
X10961000Y-17008286D01*
X10975286Y-17036857D01*
X10975286Y-17122572D01*
X10961000Y-17151143D01*
X10946714Y-17165429D01*
X10918143Y-17179714D01*
X10875286Y-17179714D01*
X11146714Y-17179714D02*
X11118143Y-17165429D01*
X11103857Y-17136857D01*
X11103857Y-16879714D01*
X11375286Y-17165429D02*
X11346714Y-17179714D01*
X11289571Y-17179714D01*
X11261000Y-17165429D01*
X11246714Y-17136857D01*
X11246714Y-17022572D01*
X11261000Y-16994000D01*
X11289571Y-16979714D01*
X11346714Y-16979714D01*
X11375286Y-16994000D01*
X11389571Y-17022572D01*
X11389571Y-17051143D01*
X11246714Y-17079714D01*
X11503857Y-17165429D02*
X11532428Y-17179714D01*
X11589571Y-17179714D01*
X11618143Y-17165429D01*
X11632428Y-17136857D01*
X11632428Y-17122572D01*
X11618143Y-17094000D01*
X11589571Y-17079714D01*
X11546714Y-17079714D01*
X11518143Y-17065429D01*
X11503857Y-17036857D01*
X11503857Y-17022572D01*
X11518143Y-16994000D01*
X11546714Y-16979714D01*
X11589571Y-16979714D01*
X11618143Y-16994000D01*
X11732428Y-17294000D02*
X11746714Y-17279714D01*
X11775286Y-17236857D01*
X11789571Y-17208286D01*
X11803857Y-17165429D01*
X11818143Y-17094000D01*
X11818143Y-17036857D01*
X11803857Y-16965429D01*
X11789571Y-16922572D01*
X11775286Y-16894000D01*
X11746714Y-16851143D01*
X11732428Y-16836857D01*
X4976000Y-17305000D02*
X5246000Y-17575000D01*
X5246000Y-17305000D02*
X4976000Y-17575000D01*
X5246000Y-17440000D02*
G75*
G03X5246000Y-17440000I-135000J0D01*
G01*
X5518143Y-17304286D02*
X5532428Y-17290000D01*
X5561000Y-17275714D01*
X5632428Y-17275714D01*
X5661000Y-17290000D01*
X5675286Y-17304286D01*
X5689571Y-17332857D01*
X5689571Y-17361429D01*
X5675286Y-17404286D01*
X5503857Y-17575714D01*
X5689571Y-17575714D01*
X5818143Y-17547143D02*
X5832428Y-17561429D01*
X5818143Y-17575714D01*
X5803857Y-17561429D01*
X5818143Y-17547143D01*
X5818143Y-17575714D01*
X5932428Y-17275714D02*
X6132428Y-17275714D01*
X6003857Y-17575714D01*
X6303857Y-17275714D02*
X6332428Y-17275714D01*
X6361000Y-17290000D01*
X6375286Y-17304286D01*
X6389571Y-17332857D01*
X6403857Y-17390000D01*
X6403857Y-17461429D01*
X6389571Y-17518572D01*
X6375286Y-17547143D01*
X6361000Y-17561429D01*
X6332428Y-17575714D01*
X6303857Y-17575714D01*
X6275286Y-17561429D01*
X6261000Y-17547143D01*
X6246714Y-17518572D01*
X6232428Y-17461429D01*
X6232428Y-17390000D01*
X6246714Y-17332857D01*
X6261000Y-17304286D01*
X6275286Y-17290000D01*
X6303857Y-17275714D01*
X6532428Y-17575714D02*
X6532428Y-17375714D01*
X6532428Y-17404286D02*
X6546714Y-17390000D01*
X6575286Y-17375714D01*
X6618143Y-17375714D01*
X6646714Y-17390000D01*
X6661000Y-17418572D01*
X6661000Y-17575714D01*
X6661000Y-17418572D02*
X6675286Y-17390000D01*
X6703857Y-17375714D01*
X6746714Y-17375714D01*
X6775286Y-17390000D01*
X6789571Y-17418572D01*
X6789571Y-17575714D01*
X6932428Y-17575714D02*
X6932428Y-17375714D01*
X6932428Y-17404286D02*
X6946714Y-17390000D01*
X6975286Y-17375714D01*
X7018143Y-17375714D01*
X7046714Y-17390000D01*
X7061000Y-17418572D01*
X7061000Y-17575714D01*
X7061000Y-17418572D02*
X7075286Y-17390000D01*
X7103857Y-17375714D01*
X7146714Y-17375714D01*
X7175286Y-17390000D01*
X7189571Y-17418572D01*
X7189571Y-17575714D01*
X7775286Y-17261429D02*
X7518143Y-17647143D01*
X8161000Y-17275714D02*
X8189571Y-17275714D01*
X8218143Y-17290000D01*
X8232428Y-17304286D01*
X8246714Y-17332857D01*
X8261000Y-17390000D01*
X8261000Y-17461429D01*
X8246714Y-17518572D01*
X8232428Y-17547143D01*
X8218143Y-17561429D01*
X8189571Y-17575714D01*
X8161000Y-17575714D01*
X8132428Y-17561429D01*
X8118143Y-17547143D01*
X8103857Y-17518572D01*
X8089571Y-17461429D01*
X8089571Y-17390000D01*
X8103857Y-17332857D01*
X8118143Y-17304286D01*
X8132428Y-17290000D01*
X8161000Y-17275714D01*
X8389571Y-17547143D02*
X8403857Y-17561429D01*
X8389571Y-17575714D01*
X8375286Y-17561429D01*
X8389571Y-17547143D01*
X8389571Y-17575714D01*
X8689571Y-17575714D02*
X8518143Y-17575714D01*
X8603857Y-17575714D02*
X8603857Y-17275714D01*
X8575286Y-17318572D01*
X8546714Y-17347143D01*
X8518143Y-17361429D01*
X8875286Y-17275714D02*
X8903857Y-17275714D01*
X8932428Y-17290000D01*
X8946714Y-17304286D01*
X8961000Y-17332857D01*
X8975286Y-17390000D01*
X8975286Y-17461429D01*
X8961000Y-17518572D01*
X8946714Y-17547143D01*
X8932428Y-17561429D01*
X8903857Y-17575714D01*
X8875286Y-17575714D01*
X8846714Y-17561429D01*
X8832428Y-17547143D01*
X8818143Y-17518572D01*
X8803857Y-17461429D01*
X8803857Y-17390000D01*
X8818143Y-17332857D01*
X8832428Y-17304286D01*
X8846714Y-17290000D01*
X8875286Y-17275714D01*
X9232428Y-17275714D02*
X9175286Y-17275714D01*
X9146714Y-17290000D01*
X9132428Y-17304286D01*
X9103857Y-17347143D01*
X9089571Y-17404286D01*
X9089571Y-17518572D01*
X9103857Y-17547143D01*
X9118143Y-17561429D01*
X9146714Y-17575714D01*
X9203857Y-17575714D01*
X9232428Y-17561429D01*
X9246714Y-17547143D01*
X9261000Y-17518572D01*
X9261000Y-17447143D01*
X9246714Y-17418572D01*
X9232428Y-17404286D01*
X9203857Y-17390000D01*
X9146714Y-17390000D01*
X9118143Y-17404286D01*
X9103857Y-17418572D01*
X9089571Y-17447143D01*
X9375286Y-17275714D02*
X9375286Y-17332857D01*
X9489571Y-17275714D02*
X9489571Y-17332857D01*
X9932428Y-17690000D02*
X9918143Y-17675714D01*
X9889571Y-17632857D01*
X9875286Y-17604286D01*
X9861000Y-17561429D01*
X9846714Y-17490000D01*
X9846714Y-17432857D01*
X9861000Y-17361429D01*
X9875286Y-17318572D01*
X9889571Y-17290000D01*
X9918143Y-17247143D01*
X9932428Y-17232857D01*
X10175286Y-17375714D02*
X10175286Y-17575714D01*
X10103857Y-17261429D02*
X10032428Y-17475714D01*
X10218143Y-17475714D01*
X10561000Y-17575714D02*
X10561000Y-17275714D01*
X10689571Y-17575714D02*
X10689571Y-17418572D01*
X10675286Y-17390000D01*
X10646714Y-17375714D01*
X10603857Y-17375714D01*
X10575286Y-17390000D01*
X10561000Y-17404286D01*
X10875286Y-17575714D02*
X10846714Y-17561429D01*
X10832428Y-17547143D01*
X10818143Y-17518572D01*
X10818143Y-17432857D01*
X10832428Y-17404286D01*
X10846714Y-17390000D01*
X10875286Y-17375714D01*
X10918143Y-17375714D01*
X10946714Y-17390000D01*
X10961000Y-17404286D01*
X10975286Y-17432857D01*
X10975286Y-17518572D01*
X10961000Y-17547143D01*
X10946714Y-17561429D01*
X10918143Y-17575714D01*
X10875286Y-17575714D01*
X11146714Y-17575714D02*
X11118143Y-17561429D01*
X11103857Y-17532857D01*
X11103857Y-17275714D01*
X11375286Y-17561429D02*
X11346714Y-17575714D01*
X11289571Y-17575714D01*
X11261000Y-17561429D01*
X11246714Y-17532857D01*
X11246714Y-17418572D01*
X11261000Y-17390000D01*
X11289571Y-17375714D01*
X11346714Y-17375714D01*
X11375286Y-17390000D01*
X11389571Y-17418572D01*
X11389571Y-17447143D01*
X11246714Y-17475714D01*
X11503857Y-17561429D02*
X11532428Y-17575714D01*
X11589571Y-17575714D01*
X11618143Y-17561429D01*
X11632428Y-17532857D01*
X11632428Y-17518572D01*
X11618143Y-17490000D01*
X11589571Y-17475714D01*
X11546714Y-17475714D01*
X11518143Y-17461429D01*
X11503857Y-17432857D01*
X11503857Y-17418572D01*
X11518143Y-17390000D01*
X11546714Y-17375714D01*
X11589571Y-17375714D01*
X11618143Y-17390000D01*
X11732428Y-17690000D02*
X11746714Y-17675714D01*
X11775286Y-17632857D01*
X11789571Y-17604286D01*
X11803857Y-17561429D01*
X11818143Y-17490000D01*
X11818143Y-17432857D01*
X11803857Y-17361429D01*
X11789571Y-17318572D01*
X11775286Y-17290000D01*
X11746714Y-17247143D01*
X11732428Y-17232857D01*
X4926000Y-17680000D02*
X5246000Y-18000000D01*
X5246000Y-17680000D02*
X4926000Y-18000000D01*
X5086000Y-17680000D02*
X5086000Y-18000000D01*
X4926000Y-17840000D02*
X5246000Y-17840000D01*
X5503857Y-17675714D02*
X5689571Y-17675714D01*
X5589571Y-17790000D01*
X5632428Y-17790000D01*
X5661000Y-17804286D01*
X5675286Y-17818572D01*
X5689571Y-17847143D01*
X5689571Y-17918572D01*
X5675286Y-17947143D01*
X5661000Y-17961429D01*
X5632428Y-17975714D01*
X5546714Y-17975714D01*
X5518143Y-17961429D01*
X5503857Y-17947143D01*
X5818143Y-17947143D02*
X5832428Y-17961429D01*
X5818143Y-17975714D01*
X5803857Y-17961429D01*
X5818143Y-17947143D01*
X5818143Y-17975714D01*
X5946714Y-17704286D02*
X5961000Y-17690000D01*
X5989571Y-17675714D01*
X6061000Y-17675714D01*
X6089571Y-17690000D01*
X6103857Y-17704286D01*
X6118143Y-17732857D01*
X6118143Y-17761429D01*
X6103857Y-17804286D01*
X5932428Y-17975714D01*
X6118143Y-17975714D01*
X6303857Y-17675714D02*
X6332428Y-17675714D01*
X6361000Y-17690000D01*
X6375286Y-17704286D01*
X6389571Y-17732857D01*
X6403857Y-17790000D01*
X6403857Y-17861429D01*
X6389571Y-17918572D01*
X6375286Y-17947143D01*
X6361000Y-17961429D01*
X6332428Y-17975714D01*
X6303857Y-17975714D01*
X6275286Y-17961429D01*
X6261000Y-17947143D01*
X6246714Y-17918572D01*
X6232428Y-17861429D01*
X6232428Y-17790000D01*
X6246714Y-17732857D01*
X6261000Y-17704286D01*
X6275286Y-17690000D01*
X6303857Y-17675714D01*
X6532428Y-17975714D02*
X6532428Y-17775714D01*
X6532428Y-17804286D02*
X6546714Y-17790000D01*
X6575286Y-17775714D01*
X6618143Y-17775714D01*
X6646714Y-17790000D01*
X6661000Y-17818572D01*
X6661000Y-17975714D01*
X6661000Y-17818572D02*
X6675286Y-17790000D01*
X6703857Y-17775714D01*
X6746714Y-17775714D01*
X6775286Y-17790000D01*
X6789571Y-17818572D01*
X6789571Y-17975714D01*
X6932428Y-17975714D02*
X6932428Y-17775714D01*
X6932428Y-17804286D02*
X6946714Y-17790000D01*
X6975286Y-17775714D01*
X7018143Y-17775714D01*
X7046714Y-17790000D01*
X7061000Y-17818572D01*
X7061000Y-17975714D01*
X7061000Y-17818572D02*
X7075286Y-17790000D01*
X7103857Y-17775714D01*
X7146714Y-17775714D01*
X7175286Y-17790000D01*
X7189571Y-17818572D01*
X7189571Y-17975714D01*
X7775286Y-17661429D02*
X7518143Y-18047143D01*
X8161000Y-17675714D02*
X8189571Y-17675714D01*
X8218143Y-17690000D01*
X8232428Y-17704286D01*
X8246714Y-17732857D01*
X8261000Y-17790000D01*
X8261000Y-17861429D01*
X8246714Y-17918572D01*
X8232428Y-17947143D01*
X8218143Y-17961429D01*
X8189571Y-17975714D01*
X8161000Y-17975714D01*
X8132428Y-17961429D01*
X8118143Y-17947143D01*
X8103857Y-17918572D01*
X8089571Y-17861429D01*
X8089571Y-17790000D01*
X8103857Y-17732857D01*
X8118143Y-17704286D01*
X8132428Y-17690000D01*
X8161000Y-17675714D01*
X8389571Y-17947143D02*
X8403857Y-17961429D01*
X8389571Y-17975714D01*
X8375286Y-17961429D01*
X8389571Y-17947143D01*
X8389571Y-17975714D01*
X8689571Y-17975714D02*
X8518143Y-17975714D01*
X8603857Y-17975714D02*
X8603857Y-17675714D01*
X8575286Y-17718572D01*
X8546714Y-17747143D01*
X8518143Y-17761429D01*
X8803857Y-17704286D02*
X8818143Y-17690000D01*
X8846714Y-17675714D01*
X8918143Y-17675714D01*
X8946714Y-17690000D01*
X8961000Y-17704286D01*
X8975286Y-17732857D01*
X8975286Y-17761429D01*
X8961000Y-17804286D01*
X8789571Y-17975714D01*
X8975286Y-17975714D01*
X9232428Y-17675714D02*
X9175286Y-17675714D01*
X9146714Y-17690000D01*
X9132428Y-17704286D01*
X9103857Y-17747143D01*
X9089571Y-17804286D01*
X9089571Y-17918572D01*
X9103857Y-17947143D01*
X9118143Y-17961429D01*
X9146714Y-17975714D01*
X9203857Y-17975714D01*
X9232428Y-17961429D01*
X9246714Y-17947143D01*
X9261000Y-17918572D01*
X9261000Y-17847143D01*
X9246714Y-17818572D01*
X9232428Y-17804286D01*
X9203857Y-17790000D01*
X9146714Y-17790000D01*
X9118143Y-17804286D01*
X9103857Y-17818572D01*
X9089571Y-17847143D01*
X9375286Y-17675714D02*
X9375286Y-17732857D01*
X9489571Y-17675714D02*
X9489571Y-17732857D01*
X9932428Y-18090000D02*
X9918143Y-18075714D01*
X9889571Y-18032857D01*
X9875286Y-18004286D01*
X9861000Y-17961429D01*
X9846714Y-17890000D01*
X9846714Y-17832857D01*
X9861000Y-17761429D01*
X9875286Y-17718572D01*
X9889571Y-17690000D01*
X9918143Y-17647143D01*
X9932428Y-17632857D01*
X10032428Y-17704286D02*
X10046714Y-17690000D01*
X10075286Y-17675714D01*
X10146714Y-17675714D01*
X10175286Y-17690000D01*
X10189571Y-17704286D01*
X10203857Y-17732857D01*
X10203857Y-17761429D01*
X10189571Y-17804286D01*
X10018143Y-17975714D01*
X10203857Y-17975714D01*
X10561000Y-17975714D02*
X10561000Y-17675714D01*
X10689571Y-17975714D02*
X10689571Y-17818572D01*
X10675286Y-17790000D01*
X10646714Y-17775714D01*
X10603857Y-17775714D01*
X10575286Y-17790000D01*
X10561000Y-17804286D01*
X10875286Y-17975714D02*
X10846714Y-17961429D01*
X10832428Y-17947143D01*
X10818143Y-17918572D01*
X10818143Y-17832857D01*
X10832428Y-17804286D01*
X10846714Y-17790000D01*
X10875286Y-17775714D01*
X10918143Y-17775714D01*
X10946714Y-17790000D01*
X10961000Y-17804286D01*
X10975286Y-17832857D01*
X10975286Y-17918572D01*
X10961000Y-17947143D01*
X10946714Y-17961429D01*
X10918143Y-17975714D01*
X10875286Y-17975714D01*
X11146714Y-17975714D02*
X11118143Y-17961429D01*
X11103857Y-17932857D01*
X11103857Y-17675714D01*
X11375286Y-17961429D02*
X11346714Y-17975714D01*
X11289571Y-17975714D01*
X11261000Y-17961429D01*
X11246714Y-17932857D01*
X11246714Y-17818572D01*
X11261000Y-17790000D01*
X11289571Y-17775714D01*
X11346714Y-17775714D01*
X11375286Y-17790000D01*
X11389571Y-17818572D01*
X11389571Y-17847143D01*
X11246714Y-17875714D01*
X11503857Y-17961429D02*
X11532428Y-17975714D01*
X11589571Y-17975714D01*
X11618143Y-17961429D01*
X11632428Y-17932857D01*
X11632428Y-17918572D01*
X11618143Y-17890000D01*
X11589571Y-17875714D01*
X11546714Y-17875714D01*
X11518143Y-17861429D01*
X11503857Y-17832857D01*
X11503857Y-17818572D01*
X11518143Y-17790000D01*
X11546714Y-17775714D01*
X11589571Y-17775714D01*
X11618143Y-17790000D01*
X11732428Y-18090000D02*
X11746714Y-18075714D01*
X11775286Y-18032857D01*
X11789571Y-18004286D01*
X11803857Y-17961429D01*
X11818143Y-17890000D01*
X11818143Y-17832857D01*
X11803857Y-17761429D01*
X11789571Y-17718572D01*
X11775286Y-17690000D01*
X11746714Y-17647143D01*
X11732428Y-17632857D01*
M02*
