G04 #@! TF.GenerationSoftware,KiCad,Pcbnew,(5.1.2)-2*
G04 #@! TF.CreationDate,2023-03-19T23:22:58+01:00*
G04 #@! TF.ProjectId,Retro_6809_SBC,52657472-6f5f-4363-9830-395f5342432e,rev?*
G04 #@! TF.SameCoordinates,Original*
G04 #@! TF.FileFunction,Legend,Bot*
G04 #@! TF.FilePolarity,Positive*
%FSLAX46Y46*%
G04 Gerber Fmt 4.6, Leading zero omitted, Abs format (unit mm)*
G04 Created by KiCad (PCBNEW (5.1.2)-2) date 2023-03-19 23:22:58*
%MOMM*%
%LPD*%
G04 APERTURE LIST*
%ADD10C,0.120000*%
%ADD11C,0.150000*%
G04 APERTURE END LIST*
D10*
X203851000Y-45140200D02*
X203851000Y-46840200D01*
X189951000Y-45140200D02*
X203851000Y-45140200D01*
X189951000Y-46840200D02*
X189951000Y-45140200D01*
X189951000Y-49640200D02*
X189951000Y-52540200D01*
X189951000Y-55940200D02*
X189951000Y-60440200D01*
X203851000Y-61240200D02*
X199751000Y-61240200D01*
X203851000Y-58140200D02*
X203851000Y-61240200D01*
X203851000Y-49640200D02*
X203851000Y-55340200D01*
X180619000Y-109562000D02*
X180619000Y-108162000D01*
X179144000Y-108162000D02*
X179144000Y-109562000D01*
X179919000Y-110262000D02*
G75*
G03X180619000Y-109562000I0J700000D01*
G01*
X179144000Y-109562000D02*
G75*
G03X179844000Y-110262000I700000J0D01*
G01*
X179844000Y-107462000D02*
G75*
G03X179144000Y-108162000I0J-700000D01*
G01*
X180619000Y-108162000D02*
G75*
G03X179919000Y-107462000I-700000J0D01*
G01*
X135408000Y-95081000D02*
X135408000Y-96481000D01*
X136883000Y-96481000D02*
X136883000Y-95081000D01*
X136108000Y-94381000D02*
G75*
G03X135408000Y-95081000I0J-700000D01*
G01*
X136883000Y-95081000D02*
G75*
G03X136183000Y-94381000I-700000J0D01*
G01*
X136183000Y-97181000D02*
G75*
G03X136883000Y-96481000I0J700000D01*
G01*
X135408000Y-96481000D02*
G75*
G03X136108000Y-97181000I700000J0D01*
G01*
X135408000Y-101050000D02*
X135408000Y-102450000D01*
X136883000Y-102450000D02*
X136883000Y-101050000D01*
X136108000Y-100350000D02*
G75*
G03X135408000Y-101050000I0J-700000D01*
G01*
X136883000Y-101050000D02*
G75*
G03X136183000Y-100350000I-700000J0D01*
G01*
X136183000Y-103150000D02*
G75*
G03X136883000Y-102450000I0J700000D01*
G01*
X135408000Y-102450000D02*
G75*
G03X136108000Y-103150000I700000J0D01*
G01*
X135408000Y-104479000D02*
X135408000Y-105879000D01*
X136883000Y-105879000D02*
X136883000Y-104479000D01*
X136108000Y-103779000D02*
G75*
G03X135408000Y-104479000I0J-700000D01*
G01*
X136883000Y-104479000D02*
G75*
G03X136183000Y-103779000I-700000J0D01*
G01*
X136183000Y-106579000D02*
G75*
G03X136883000Y-105879000I0J700000D01*
G01*
X135408000Y-105879000D02*
G75*
G03X136108000Y-106579000I700000J0D01*
G01*
D11*
X204603380Y-59530676D02*
X205317666Y-59530676D01*
X205460523Y-59483057D01*
X205555761Y-59387819D01*
X205603380Y-59244961D01*
X205603380Y-59149723D01*
X205603380Y-60530676D02*
X205603380Y-59959247D01*
X205603380Y-60244961D02*
X204603380Y-60244961D01*
X204746238Y-60149723D01*
X204841476Y-60054485D01*
X204889095Y-59959247D01*
X204603380Y-61149723D02*
X204603380Y-61244961D01*
X204651000Y-61340200D01*
X204698619Y-61387819D01*
X204793857Y-61435438D01*
X204984333Y-61483057D01*
X205222428Y-61483057D01*
X205412904Y-61435438D01*
X205508142Y-61387819D01*
X205555761Y-61340200D01*
X205603380Y-61244961D01*
X205603380Y-61149723D01*
X205555761Y-61054485D01*
X205508142Y-61006866D01*
X205412904Y-60959247D01*
X205222428Y-60911628D01*
X204984333Y-60911628D01*
X204793857Y-60959247D01*
X204698619Y-61006866D01*
X204651000Y-61054485D01*
X204603380Y-61149723D01*
X181046380Y-108028666D02*
X181760666Y-108028666D01*
X181903523Y-107981047D01*
X181998761Y-107885809D01*
X182046380Y-107742952D01*
X182046380Y-107647714D01*
X182046380Y-108504857D02*
X181046380Y-108504857D01*
X181046380Y-108885809D01*
X181094000Y-108981047D01*
X181141619Y-109028666D01*
X181236857Y-109076285D01*
X181379714Y-109076285D01*
X181474952Y-109028666D01*
X181522571Y-108981047D01*
X181570190Y-108885809D01*
X181570190Y-108504857D01*
X181474952Y-109647714D02*
X181427333Y-109552476D01*
X181379714Y-109504857D01*
X181284476Y-109457238D01*
X181236857Y-109457238D01*
X181141619Y-109504857D01*
X181094000Y-109552476D01*
X181046380Y-109647714D01*
X181046380Y-109838190D01*
X181094000Y-109933428D01*
X181141619Y-109981047D01*
X181236857Y-110028666D01*
X181284476Y-110028666D01*
X181379714Y-109981047D01*
X181427333Y-109933428D01*
X181474952Y-109838190D01*
X181474952Y-109647714D01*
X181522571Y-109552476D01*
X181570190Y-109504857D01*
X181665428Y-109457238D01*
X181855904Y-109457238D01*
X181951142Y-109504857D01*
X181998761Y-109552476D01*
X182046380Y-109647714D01*
X182046380Y-109838190D01*
X181998761Y-109933428D01*
X181951142Y-109981047D01*
X181855904Y-110028666D01*
X181665428Y-110028666D01*
X181570190Y-109981047D01*
X181522571Y-109933428D01*
X181474952Y-109838190D01*
X133885380Y-94947666D02*
X134599666Y-94947666D01*
X134742523Y-94900047D01*
X134837761Y-94804809D01*
X134885380Y-94661952D01*
X134885380Y-94566714D01*
X134885380Y-95423857D02*
X133885380Y-95423857D01*
X133885380Y-95804809D01*
X133933000Y-95900047D01*
X133980619Y-95947666D01*
X134075857Y-95995285D01*
X134218714Y-95995285D01*
X134313952Y-95947666D01*
X134361571Y-95900047D01*
X134409190Y-95804809D01*
X134409190Y-95423857D01*
X133885380Y-96328619D02*
X133885380Y-96995285D01*
X134885380Y-96566714D01*
X133885380Y-100916666D02*
X134599666Y-100916666D01*
X134742523Y-100869047D01*
X134837761Y-100773809D01*
X134885380Y-100630952D01*
X134885380Y-100535714D01*
X134885380Y-101392857D02*
X133885380Y-101392857D01*
X133885380Y-101773809D01*
X133933000Y-101869047D01*
X133980619Y-101916666D01*
X134075857Y-101964285D01*
X134218714Y-101964285D01*
X134313952Y-101916666D01*
X134361571Y-101869047D01*
X134409190Y-101773809D01*
X134409190Y-101392857D01*
X133885380Y-102821428D02*
X133885380Y-102630952D01*
X133933000Y-102535714D01*
X133980619Y-102488095D01*
X134123476Y-102392857D01*
X134313952Y-102345238D01*
X134694904Y-102345238D01*
X134790142Y-102392857D01*
X134837761Y-102440476D01*
X134885380Y-102535714D01*
X134885380Y-102726190D01*
X134837761Y-102821428D01*
X134790142Y-102869047D01*
X134694904Y-102916666D01*
X134456809Y-102916666D01*
X134361571Y-102869047D01*
X134313952Y-102821428D01*
X134266333Y-102726190D01*
X134266333Y-102535714D01*
X134313952Y-102440476D01*
X134361571Y-102392857D01*
X134456809Y-102345238D01*
X133885380Y-104345666D02*
X134599666Y-104345666D01*
X134742523Y-104298047D01*
X134837761Y-104202809D01*
X134885380Y-104059952D01*
X134885380Y-103964714D01*
X134885380Y-104821857D02*
X133885380Y-104821857D01*
X133885380Y-105202809D01*
X133933000Y-105298047D01*
X133980619Y-105345666D01*
X134075857Y-105393285D01*
X134218714Y-105393285D01*
X134313952Y-105345666D01*
X134361571Y-105298047D01*
X134409190Y-105202809D01*
X134409190Y-104821857D01*
X133885380Y-106298047D02*
X133885380Y-105821857D01*
X134361571Y-105774238D01*
X134313952Y-105821857D01*
X134266333Y-105917095D01*
X134266333Y-106155190D01*
X134313952Y-106250428D01*
X134361571Y-106298047D01*
X134456809Y-106345666D01*
X134694904Y-106345666D01*
X134790142Y-106298047D01*
X134837761Y-106250428D01*
X134885380Y-106155190D01*
X134885380Y-105917095D01*
X134837761Y-105821857D01*
X134790142Y-105774238D01*
M02*
